<?xml version="1.0" encoding="UTF-8" standalone="no"?>
<svg width="50px" height="50px" viewBox="0 0 50 50" version="1.1" xmlns="http://www.w3.org/2000/svg" xmlns:xlink="http://www.w3.org/1999/xlink">
    <title>Style_2</title>
    <desc>Created with Sketch.</desc>
    <defs></defs>
    <g id="Page-1" stroke="none" stroke-width="1" fill="none" fill-rule="evenodd">
        <g id="Style_2">
            <path d="M25,0 C11.1921875,0 0,11.1921875 0,25 C0,38.80625 11.1921875,50 25,50 C38.8078125,50 50,38.80625 50,25 C50,11.1921875 38.8078125,0 25,0 L25,0 Z" id="Shape" fill="#393E46" fill-opacity="0.3"></path>
            <g id="Group" transform="translate(9.375000, 14.062500)" fill="#FFFFFF">
                <polygon id="Shape" points="0.809375 20.0234375 8.9171875 9.8296875 0.809375 4.8734375"></polygon>
                <polygon id="Shape" points="21.09375 10.540625 15.6078125 13.91875 10.1125 10.559375 1.734375 21.09375 29.4796875 21.09375"></polygon>
                <polygon id="Shape" points="15.60625 12.2875 30.440625 3.1515625 30.440625 0.78125 0.809375 0.78125 0.809375 3.24375"></polygon>
                <polygon id="Shape" points="22.2859375 9.80625 30.440625 20.0671875 30.440625 4.784375"></polygon>
            </g>
        </g>
    </g>
</svg>
