<?xml version="1.0" encoding="UTF-8" standalone="no"?>
<svg width="50px" height="50px" viewBox="0 0 50 50" version="1.1" xmlns="http://www.w3.org/2000/svg" xmlns:xlink="http://www.w3.org/1999/xlink">
    <title>Layer_3</title>
    <desc>Created with Sketch.</desc>
    <defs></defs>
    <g id="Page-1" stroke="none" stroke-width="1" fill="none" fill-rule="evenodd">
        <g id="Layer_3">
            <path d="M25,0 C11.1929688,0 0,11.1929688 0,25 C0,38.8070313 11.1929688,50 25,50 C38.8070313,50 50,38.8070313 50,25 C50,11.1929688 38.8070313,0 25,0 L25,0 Z" id="Shape" fill="#393E46" fill-opacity="0.3"></path>
            <g id="Outline_Filled" transform="translate(12.500000, 10.156250)" fill="#FFFFFF">
                <path d="M17.65,29.0359375 L13.86875,29.0359375 L10.084375,29.0359375 C10.084375,29.0359375 10.0953125,26.790625 10.084375,25.2515625 C4.90546875,26.3671875 3.46015625,22.4132812 3.46015625,22.4132812 C2.51484375,20.5203125 1.5671875,19.575 1.5671875,19.575 C-0.32578125,18.4515625 1.5671875,18.6296875 1.5671875,18.6296875 C3.46015625,18.6296875 4.40546875,20.5226562 4.40546875,20.5226562 C6.06640625,23.3421875 9.02109375,22.8882812 10.0820312,22.415625 C10.0820312,21.4703125 10.4960937,20.0390625 11.0273437,19.5773437 C6.89453125,19.1125 3.4546875,16.7390625 3.4546875,12.0078125 C3.4546875,7.2765625 4.4046875,6.33125 5.35078125,5.38359375 C5.16015625,4.9171875 4.3671875,3.1921875 5.3796875,0.65234375 C5.3796875,0.65234375 7.2390625,0.65234375 9.13203125,3.490625 C10.0695312,2.553125 12.9164062,2.5453125 13.8632812,2.5453125 C14.8070312,2.5453125 17.6554687,2.553125 18.5929688,3.490625 C20.4859375,0.65234375 22.35,0.65234375 22.35,0.65234375 C23.3625,3.1921875 22.5703125,4.9171875 22.3789062,5.38359375 C23.3242187,6.32890625 24.271875,7.2765625 24.271875,12.0078125 C24.271875,16.7390625 20.8367187,19.1109375 16.7023437,19.5773437 C17.2351562,20.0390625 17.6476563,21.6671875 17.6476563,22.415625 L17.65,29.0359375 L17.65,29.0359375 L17.65,29.0359375 Z" id="Cat_3_"></path>
            </g>
        </g>
    </g>
</svg>
