<?xml version="1.0" encoding="UTF-8" standalone="no"?>
<svg width="50px" height="50px" viewBox="0 0 50 50" version="1.1" xmlns="http://www.w3.org/2000/svg" xmlns:xlink="http://www.w3.org/1999/xlink">
    <!-- Generator: Sketch 39.1 (31720) - http://www.bohemiancoding.com/sketch -->
    <title>1475978539_github_circle_gray</title>
    <desc>Created with Sketch.</desc>
    <defs></defs>
    <g id="Page-1" stroke="none" stroke-width="1" fill="none" fill-rule="evenodd">
        <g id="1475978539_github_circle_gray" fill="#0C8274">
            <path d="M14.6191667,25.4741667 C14.5741667,25.4733333 15.1125,26.6125 15.1275,26.6125 C16.3025,28.7091667 18.5675,30.0125 22.3883333,30.3741667 C21.8433333,30.7808333 21.1883333,31.5525 21.0975,32.4441667 C20.4116667,32.88 19.0325,33.0241667 17.9608333,32.6916667 C16.4583333,32.2258333 15.8833333,29.3033333 13.6341667,29.72 C13.1475,29.8091667 13.2441667,30.125 13.665,30.3933333 C14.3508333,30.83 14.9958333,31.3758333 15.4933333,32.5366667 C15.8758333,33.4283333 16.6791667,35.0208333 19.2208333,35.0208333 C20.2291667,35.0208333 20.9358333,34.9016667 20.9358333,34.9016667 C20.9358333,34.9016667 20.955,37.1775 20.955,38.0625 C20.955,39.0833333 19.5533333,39.3708333 19.5533333,39.8616667 C19.5533333,40.0558333 20.0175,40.0741667 20.39,40.0741667 C21.1266667,40.0741667 22.6591667,39.47 22.6591667,38.4091667 C22.6591667,37.5666667 22.6733333,34.7333333 22.6733333,34.2375 C22.6733333,33.1541667 23.2641667,32.8108333 23.2641667,32.8108333 C23.2641667,32.8108333 23.3375,38.5941667 23.1233333,39.3708333 C22.8716667,40.2825 22.4175,40.1533333 22.4175,40.56 C22.4175,41.165 24.2625,40.7091667 24.8741667,39.38 C25.3466667,38.3475 25.14,32.6716667 25.14,32.6716667 L25.6441667,32.6616667 C25.6441667,32.6616667 25.6725,35.2591667 25.655,36.4466667 C25.6375,37.6766667 25.5525,39.2316667 26.2958333,39.965 C26.7841667,40.4475 28.3658333,41.2933333 28.3658333,40.52 C28.3658333,40.0708333 27.4991667,39.7016667 27.4991667,38.4858333 L27.4991667,32.89 C28.1916667,32.89 28.0875,34.73 28.0875,34.73 L28.1383333,38.1491667 C28.1383333,38.1491667 27.985,39.3941667 29.5091667,39.915 C30.0466667,40.1008333 31.1966667,40.15 31.2508333,39.84 C31.305,39.5291667 29.8658333,39.0666667 29.8525,38.1033333 C29.8441667,37.5141667 29.8791667,37.1708333 29.8791667,34.6141667 C29.8791667,32.0575 29.53,31.1125 28.3125,30.3591667 C32.0691667,29.98 34.395,29.0666667 35.5275,26.6208333 C35.6158333,26.6233333 35.99,25.4783333 35.9408333,25.4783333 C36.195,24.555 36.3325,23.4625 36.3591667,22.1691667 C36.3525,18.6608333 34.6441667,17.42 34.3166667,16.8375 C34.8,14.1816667 34.235,12.9733333 33.9733333,12.5583333 C33.005,12.22 30.6058333,13.4291667 29.2941667,14.28 C27.1575,13.6658333 22.6391667,13.725 20.945,14.4383333 C17.8191667,12.2391667 16.165,12.5758333 16.165,12.5758333 C16.165,12.5758333 15.0958333,14.4583333 15.8825,17.2133333 C14.8541667,18.5016667 14.0875,19.4133333 14.0875,21.8291667 C14.0883333,23.1916667 14.2516667,24.41 14.6191667,25.4741667 L14.6191667,25.4741667 Z M25,50 C11.1933333,50 0,38.8075 0,25 C0,11.1925 11.1933333,0 25,0 C38.8066667,0 50,11.1925 50,25 C50,38.8075 38.8066667,50 25,50 L25,50 Z" id="Shape"></path>
        </g>
    </g>
</svg>