<?xml version="1.0" encoding="UTF-8" standalone="no"?>
<svg width="50px" height="50px" viewBox="0 0 50 50" version="1.1" xmlns="http://www.w3.org/2000/svg" xmlns:xlink="http://www.w3.org/1999/xlink">
    <!-- Generator: Sketch 39.1 (31720) - http://www.bohemiancoding.com/sketch -->
    <title>1476041916_linkedin</title>
    <desc>Created with Sketch.</desc>
    <defs></defs>
    <g id="Page-1" stroke="none" stroke-width="1" fill="none" fill-rule="evenodd">
        <g id="1476041916_linkedin">
            <g id="Group">
                <ellipse id="Oval" fill="#4E8AF6" cx="24.8221239" cy="25.0425439" rx="24.8221239" ry="24.604386"></ellipse>
                <path d="M39.6530973,27.0223684 L39.6530973,37.1662281 L33.7199115,37.1662281 L33.7199115,27.702193 C33.7199115,25.3258772 32.8632743,23.7030702 30.7150442,23.7030702 C29.0756637,23.7030702 28.1017699,24.795614 27.6716814,25.8535088 C27.5154867,26.2315789 27.4752212,26.7565789 27.4752212,27.2868421 L27.4752212,37.1657895 L21.5415929,37.1657895 C21.5415929,37.1657895 21.6212389,21.1368421 21.5415929,19.4776316 L27.4756637,19.4776316 L27.4756637,21.9842105 C27.4637168,22.0039474 27.4469027,22.0232456 27.4362832,22.0421053 L27.4756637,22.0421053 L27.4756637,21.9842105 C28.2641593,20.7815789 29.670354,19.0622807 32.8230088,19.0622807 C36.7265487,19.0622807 39.6530973,21.5903509 39.6530973,27.0223684 L39.6530973,27.0223684 L39.6530973,27.0223684 Z M15.3345133,10.9513158 C13.3048673,10.9513158 11.9769912,12.2719298 11.9769912,14.0070175 C11.9769912,15.7052632 13.2663717,17.0640351 15.2566372,17.0640351 L15.2951327,17.0640351 C17.3646018,17.0640351 18.6513274,15.7052632 18.6513274,14.0070175 C18.6119469,12.2719298 17.3646018,10.9513158 15.3345133,10.9513158 L15.3345133,10.9513158 L15.3345133,10.9513158 Z M12.329646,37.1662281 L18.2610619,37.1662281 L18.2610619,19.4776316 L12.329646,19.4776316 L12.329646,37.1662281 L12.329646,37.1662281 Z" id="Shape" fill="#FFFFFF"></path>
            </g>
        </g>
    </g>
</svg>