<?xml version="1.0" encoding="UTF-8" standalone="no"?>
<svg width="50px" height="50px" viewBox="0 0 60 60" version="1.1" xmlns="http://www.w3.org/2000/svg" xmlns:xlink="http://www.w3.org/1999/xlink">
    <!-- Generator: Sketch 39.1 (31720) - http://www.bohemiancoding.com/sketch -->
    <title>1481947395_social-linkedin-circle</title>
    <desc>Created with Sketch.</desc>
    <defs></defs>
    <g id="Page-1" stroke="none" stroke-width="1" fill="none" fill-rule="evenodd">
        <g id="1481947395_social-linkedin-circle">
            <circle id="Oval" fill="#A3A6AB" cx="30" cy="30" r="30" fill-opacity="0.7"></circle>
            <path d="M20.6807812,44.9690625 L13.68,44.9690625 L13.68,22.4671875 L20.6807812,22.4671875 L20.6807812,44.9690625 L20.6807812,44.9690625 Z M17.1825,19.3926562 C14.93625,19.3926562 13.125,17.5757812 13.125,15.3365625 C13.125,13.0982813 14.93625,11.2809375 17.1825,11.2809375 C19.4189062,11.2809375 21.2353125,13.0978125 21.2353125,15.3365625 C21.2357812,17.5757812 19.419375,19.3926562 17.1825,19.3926562 L17.1825,19.3926562 Z M46.875,44.9690625 L39.8817188,44.9690625 L39.8817188,34.0265625 C39.8817188,31.4175 39.83625,28.0603125 36.2479688,28.0603125 C32.608125,28.0603125 32.0535938,30.9032812 32.0535938,33.84 L32.0535938,44.9690625 L25.0682812,44.9690625 L25.0682812,22.4671875 L31.771875,22.4671875 L31.771875,25.543125 L31.8675,25.543125 C32.8003125,23.7740625 35.0817188,21.9089062 38.4848438,21.9089062 C45.5653125,21.9089062 46.8740625,26.5678125 46.8740625,32.6282812 L46.875,44.9690625 L46.875,44.9690625 L46.875,44.9690625 Z" id="Shape" fill="#00ADB5"></path>
        </g>
    </g>
</svg>
