<?xml version="1.0" encoding="UTF-8" standalone="no"?>
<svg width="50px" height="50px" viewBox="0 0 50 50" version="1.1" xmlns="http://www.w3.org/2000/svg" xmlns:xlink="http://www.w3.org/1999/xlink">
    <!-- Generator: Sketch 39.1 (31720) - http://www.bohemiancoding.com/sketch -->
    <title>1475978527_linkedin_circle_gray</title>
    <desc>Created with Sketch.</desc>
    <defs></defs>
    <g id="Page-1" stroke="none" stroke-width="1" fill="none" fill-rule="evenodd">
        <g id="1475978527_linkedin_circle_gray" fill="#0C8274">
            <path d="M39.0308333,36.7808333 L39.0308333,27.0208333 C39.0308333,21.7916667 36.2391667,19.3583333 32.5175,19.3583333 C29.5141667,19.3583333 28.1683333,21.0108333 27.4183333,22.17 L27.4183333,19.7583333 L21.76,19.7583333 C21.835,21.3558333 21.76,36.7808333 21.76,36.7808333 L27.4183333,36.7808333 L27.4183333,27.2741667 C27.4183333,26.7666667 27.455,26.2583333 27.605,25.895 C28.0133333,24.8783333 28.9441667,23.8258333 30.5066667,23.8258333 C32.555,23.8258333 33.3733333,25.3866667 33.3733333,27.6741667 L33.3733333,36.7816667 L39.0308333,36.7816667 L39.0308333,36.7808333 Z M15.7991667,17.435 C17.7716667,17.435 19.0008333,16.1266667 19.0008333,14.4925 C18.9641667,12.8233333 17.7716667,11.5525 15.8366667,11.5525 C13.9016667,11.5525 12.6358333,12.8225 12.6358333,14.4925 C12.6358333,16.1266667 13.8641667,17.435 15.7633333,17.435 L15.7991667,17.435 L15.7991667,17.435 Z M25,50 C11.1933333,50 0,38.8066667 0,25 C0,11.1925 11.1933333,0 25,0 C38.8066667,0 50,11.1925 50,25 C50,38.8066667 38.8066667,50 25,50 L25,50 Z M18.6283333,36.7808333 L18.6283333,19.7583333 L12.9708333,19.7583333 L12.9708333,36.7808333 L18.6283333,36.7808333 L18.6283333,36.7808333 Z" id="Shape"></path>
        </g>
    </g>
</svg>