<?xml version="1.0" encoding="UTF-8" standalone="no"?>
<svg width="50px" height="50px" viewBox="0 0 50 50" version="1.1" xmlns="http://www.w3.org/2000/svg" xmlns:xlink="http://www.w3.org/1999/xlink">
    <title>Group</title>
    <desc>Created with Sketch.</desc>
    <g id="Page-1" stroke="none" stroke-width="1" fill="none" fill-rule="evenodd">
        <g id="Group">
            <g id="1475978518_twitter_circle_gray" fill="#A3A6AB" fill-opacity="0.7">
                <path d="M25,50 C11.1933333,50 0,38.8075 0,25 C0,11.1925 11.1933333,0 25,0 C38.8066667,0 50,11.1925 50,25 C50,38.8075 38.8066667,50 25,50 L25,50 Z" id="Shape"></path>
            </g>
            <g id="1475978559_Medium" transform="translate(8.333333, 8.333333)">
                <g id="_x34__stroke" transform="translate(-0.000000, -0.000000)">
                    <g id="Medium">
                        <rect id="Rectangle-path" x="0" y="0" width="33.3333333" height="33.3333333"></rect>
                        <g id="Medium_1_" transform="translate(0.000000, 2.343750)" stroke="#979797" stroke-width="0.5" fill="#00ADB5">
                            <path d="M23.1450521,0.245833333 C22.6372396,-0.00963541667 22.2221354,0.248697917 22.2221354,0.819791667 L22.2221354,23.5346354 L31.4872396,28.1953125 C32.5067708,28.7080729 33.3333333,28.3492187 33.3333333,27.3934896 L33.3333333,5.51953125 C33.3333333,5.428125 33.2817708,5.34427083 33.2005208,5.303125 L23.1450521,0.245833333" id="Shape"></path>
                            <path d="M11.1111979,17.9455729 L21.68125,0.665625 C21.9786458,0.179166667 22.6375,-0.00963541667 23.1450521,0.245833333 L33.2119792,5.30911458 C33.2773438,5.3421875 33.3005208,5.42421875 33.2622396,5.48671875 L22.2221354,23.534375 L11.1111979,17.9455729" id="Shape"></path>
                            <path d="M1.53828125,0.555208333 C0.691927083,0.129427083 0.40546875,0.444270833 0.901302083,1.25494792 L11.1111979,17.9453125 L22.2221354,23.5341146 L11.1351562,5.40911458 C11.1195312,5.38359375 11.096875,5.36302083 11.0700521,5.34947917 L1.53828125,0.555208333" id="Shape"></path>
                            <path d="M11.1111979,27.3932292 C11.1111979,28.3447917 10.41875,28.7752604 9.57291667,28.3497396 L0.922916667,23.9986979 C0.415364583,23.7432292 0,23.0671875 0,22.4960938 L0,1.165625 C0,0.404166667 0.55390625,0.0598958333 1.23072917,0.400520833 L11.0513021,5.34010417 C11.0880208,5.35859375 11.1111979,5.39609375 11.1111979,5.43723958 L11.1111979,27.3932292" id="Shape"></path>
                        </g>
                    </g>
                </g>
            </g>
        </g>
    </g>
</svg>
