<?xml version="1.0" encoding="UTF-8" standalone="no"?>
<svg width="50px" height="50px" viewBox="0 0 50 50" version="1.1" xmlns="http://www.w3.org/2000/svg" xmlns:xlink="http://www.w3.org/1999/xlink">
    <!-- Generator: Sketch 39.1 (31720) - http://www.bohemiancoding.com/sketch -->
    <title>1476041902_social-twitter-circle</title>
    <desc>Created with Sketch.</desc>
    <defs></defs>
    <g id="Page-1" stroke="none" stroke-width="1" fill="none" fill-rule="evenodd">
        <g id="1476041902_social-twitter-circle">
            <circle id="Oval" fill="#4E8AF6" cx="25" cy="25" r="25"></circle>
            <path d="M41.015625,15.6988281 C39.8660156,16.2089844 38.6308594,16.5535156 37.3328125,16.7082031 C38.6570312,15.9148438 39.6726562,14.6582031 40.1519531,13.1613281 C38.9132812,13.8960938 37.5410156,14.4296875 36.0808594,14.7171875 C34.9113281,13.4710938 33.2449219,12.6921875 31.4015625,12.6921875 C27.8605469,12.6921875 24.9898437,15.5628906 24.9898437,19.103125 C24.9898437,19.6058594 25.046875,20.0949219 25.15625,20.5644531 C19.8273438,20.296875 15.1035156,17.7445313 11.9414062,13.8660156 C11.3894531,14.8125 11.0730469,15.9140625 11.0730469,17.0890625 C11.0730469,19.3132812 12.2050781,21.2757812 13.9253906,22.4253906 C12.8746094,22.3921875 11.8855469,22.1035156 11.0214844,21.6230469 C11.0207031,21.65 11.0207031,21.6769531 11.0207031,21.7039062 C11.0207031,24.8109375 13.2304688,27.4007812 16.1636719,27.9902344 C15.6253906,28.1367187 15.059375,28.2148438 14.4746094,28.2148438 C14.0613281,28.2148438 13.6597656,28.1746094 13.2683594,28.0996094 C14.084375,30.646875 16.4519531,32.5011719 19.2574219,32.5523437 C17.0632813,34.2714844 14.2988281,35.2960937 11.2949219,35.2960937 C10.7773438,35.2960937 10.2667969,35.2664062 9.765625,35.2066406 C12.6027344,37.0257812 15.9734375,38.0871094 19.59375,38.0871094 C31.3859375,38.0871094 37.8347656,28.3175781 37.8347656,19.8457031 C37.8347656,19.5679687 37.8277344,19.2910156 37.815625,19.0164062 C39.0695312,18.1136719 40.1558594,16.984375 41.015625,15.6988281" id="Shape" fill="#FFFFFF"></path>
        </g>
    </g>
</svg>