<?xml version="1.0" encoding="UTF-8" standalone="no"?>
<svg width="1200px" height="673px" viewBox="0 0 1307 673" version="1.1" xmlns="http://www.w3.org/2000/svg" xmlns:xlink="http://www.w3.org/1999/xlink">
    <!-- Generator: Sketch 39.1 (31720) - http://www.bohemiancoding.com/sketch -->
    <title>world-map-146505</title>
    <desc>Created with Sketch.</desc>
    <defs>
        <filter x="-50%" y="-50%" width="200%" height="200%" filterUnits="objectBoundingBox" id="filter-1">
            <feOffset dx="0" dy="1" in="SourceAlpha" result="shadowOffsetOuter1"></feOffset>
            <feGaussianBlur stdDeviation="2" in="shadowOffsetOuter1" result="shadowBlurOuter1"></feGaussianBlur>
            <feColorMatrix values="0 0 0 0 0   0 0 0 0 0   0 0 0 0 0  0 0 0 0.14305933 0" type="matrix" in="shadowBlurOuter1" result="shadowMatrixOuter1"></feColorMatrix>
            <feMerge>
                <feMergeNode in="shadowMatrixOuter1"></feMergeNode>
                <feMergeNode in="SourceGraphic"></feMergeNode>
            </feMerge>
        </filter>
    </defs>
    <g id="Page-1" stroke="none" stroke-width="1" fill="none" fill-rule="evenodd">
        <g id="world-map-146505" filter="url(#filter-1)" transform="translate(4.000000, 3.000000)" fill="#F9F9F9">
            <path d="M574.926658,217.842857 L569.327041,225.30625 L565.596173,229.038776 L558.132781,233.14273 L557.011862,236.502168 C557.011862,236.502168 554.02551,239.48852 554.400255,241.355612 C554.775,243.222704 554.775,246.580485 554.775,246.580485 C554.775,246.580485 549.550128,251.43227 547.309949,252.924617 C545.06977,254.416964 542.083418,257.776403 542.083418,257.776403 C542.083418,257.776403 540.217985,260.016582 539.098724,260.762755 C537.979464,261.508929 536.114031,263.747449 534.620026,265.987628 C533.12602,268.227806 531.633673,269.718495 530.8875,270.837755 C530.141327,271.957015 527.901148,274.570281 526.781888,278.675893 C525.662628,282.781505 522.676276,287.633291 522.676276,287.633291 L521.928444,289.498724 C522.303189,295.844515 522.301531,296.963776 523.049362,299.203954 C523.797194,301.444133 524.543367,300.694643 523.795536,305.548087 C523.049362,310.398214 523.049362,312.265306 522.303189,314.505485 C521.557015,316.745663 519.316837,320.847959 518.572321,322.716709 C517.827806,324.585459 520.064668,327.939923 520.064668,327.939923 C520.064668,327.939923 521.185587,332.793367 520.437755,333.912628 C519.691582,335.033546 520.810842,337.272066 520.810842,337.272066 C520.810842,337.272066 525.289541,339.883673 526.783546,341.377679 C528.277551,342.871684 530.889158,345.110204 531.262245,346.229464 C531.635332,347.348724 534.621684,352.575255 534.99477,353.694515 C535.367857,354.813776 538.354209,358.91773 539.100383,360.038648 C539.846556,361.159566 543.579082,365.265179 543.579082,365.265179 C543.579082,365.265179 548.430867,368.994388 549.551786,370.488393 C550.672704,371.982398 554.030485,372.726913 555.148087,373.846173 C556.269005,374.965434 558.880612,374.590689 560.372959,375.713265 C561.865306,376.835842 564.851658,374.965434 566.345663,375.713265 C567.839668,376.461097 571.945281,374.967092 573.064541,374.220918 C574.183801,373.474745 576.795408,370.863138 578.6625,371.98074 C580.529592,373.098342 581.647194,371.98074 583.141199,372.353827 C584.635204,372.726913 586.872066,370.863138 588.364413,370.863138 C589.85676,370.863138 593.589286,369.369133 594.708546,369.369133 C595.827806,369.369133 599.56199,367.127296 601.055995,367.127296 C602.55,367.127296 604.413776,365.638265 606.279209,366.382781 C608.144643,367.127296 607.398469,364.892092 610.757908,366.009694 C614.117347,367.127296 615.236607,366.009694 616.355867,367.127296 C617.476786,368.248214 618.970791,367.130612 620.090051,368.622959 C621.209311,370.113648 623.074745,371.232908 623.447832,372.726913 C623.820918,374.220918 626.059439,375.714923 626.059439,375.714923 L628.299617,376.086352 C628.299617,376.086352 631.287628,373.847832 632.032143,375.341837 C632.776658,376.835842 636.137755,376.462755 636.137755,376.462755 L639.495536,380.193622 L640.616454,381.685969 C640.616454,381.685969 642.856633,387.658673 642.481888,389.897194 C642.107143,392.135714 642.108801,396.9875 640.989541,398.10676 C639.870281,399.227679 639.124107,404.079464 639.124107,404.079464 C639.124107,404.079464 637.630102,405.571811 640.989541,408.558163 C644.34898,411.544515 646.589158,414.156122 647.708418,415.646811 C648.829337,417.140816 651.815689,421.248087 652.185459,423.859694 C652.560204,426.471301 653.306378,427.963648 654.800383,431.323087 C656.294388,434.682526 658.158163,435.055612 658.53125,438.789796 C658.904337,442.52398 659.65051,442.522321 659.277423,445.13227 C658.904337,447.745536 657.785077,448.118622 658.904337,449.984056 C660.023597,451.84949 661.514286,455.210587 661.144515,456.329847 C660.771429,457.449107 660.023597,462.300893 660.023597,462.300893 L659.277423,464.541071 L655.919643,470.88852 L653.679464,474.244643 C652.933291,476.85625 651.440944,479.469515 651.814031,483.202041 C652.185459,486.934566 649.948597,486.932908 652.933291,490.663776 C655.917985,494.394643 657.410332,498.503571 659.277423,501.86301 C661.144515,505.220791 662.263776,508.58023 662.635204,510.81875 C663.009949,513.058929 664.502296,513.80676 665.248469,516.791454 C665.994643,519.776148 666.36773,521.268495 666.36773,523.135587 C666.36773,525.002679 665.992985,529.854464 666.742474,530.973724 C667.491964,532.092985 667.861735,535.454082 668.234821,536.946429 C668.607908,538.440434 667.113903,538.81352 669.354082,541.426786 C671.59426,544.040051 673.086607,545.53074 674.578954,547.397832 C676.071301,549.264923 675.698214,548.517092 676.819133,551.130357 C677.940051,553.743622 679.43074,555.237628 679.805485,557.47449 C680.18023,559.711352 680.55,565.310969 681.670918,567.924235 C682.791837,570.5375 684.282526,573.150765 684.282526,573.150765 C684.282526,573.150765 688.389796,575.762372 689.882143,575.389286 C691.372832,575.016199 694.360842,571.660077 696.60102,572.777679 C698.841199,573.896939 700.706633,572.777679 702.572066,572.777679 C704.4375,572.777679 706.304592,570.5375 708.171684,570.5375 C710.038776,570.5375 712.648724,567.551148 714.144388,568.29898 C715.640051,569.046811 717.50051,567.54949 719.367602,565.684056 C721.234694,563.820281 722.353954,562.327934 725.711735,559.341582 C729.069515,556.35523 728.698087,556.353571 730.936607,554.488138 C733.175128,552.622704 735.416964,548.515434 738.028571,547.76926 C740.640179,547.023087 741.386352,544.413138 742.132526,542.546046 C742.878699,540.678954 743.251786,539.559694 744.372704,538.065689 C745.493622,536.571684 744.745791,538.44375 746.612883,533.588648 C748.479974,528.733546 750.721811,526.871429 752.587245,525.75051 C754.452679,524.629592 755.571939,522.39273 756.691199,522.017985 C757.810459,521.64324 759.677551,523.137245 758.931378,519.777806 C758.186862,516.420026 758.931378,511.56824 758.186862,510.44898 C757.442347,509.329719 756.318112,513.058929 756.692857,507.459311 C757.067602,501.859694 761.171556,496.263393 761.171556,496.263393 C761.171556,496.263393 766.769515,489.173087 768.636607,488.053827 C770.503699,486.934566 770.875128,485.815306 773.490051,484.321301 C776.1,482.830612 781.699617,479.098087 781.699617,477.230995 C781.699617,475.363903 783.939796,470.512117 783.939796,469.391199 C783.939796,468.270281 783.939796,467.152679 783.195281,460.806888 C782.450765,454.461097 783.939796,455.955102 781.701276,449.984056 C779.462755,444.01301 779.086352,436.547959 777.595663,434.682526 C776.104974,432.817092 776.847832,427.96199 776.847832,426.471301 C776.847832,424.980612 779.462755,421.246429 780.582015,419.754082 C781.701276,418.260077 786.553061,412.287372 786.553061,412.287372 C786.553061,412.287372 794.016454,403.704719 796.629719,399.600765 C799.242985,395.493495 801.854592,391.762628 803.720026,390.270281 C805.585459,388.777934 810.065816,385.415179 812.677423,381.684311 C815.289031,377.953444 820.515561,370.863138 820.890306,369.740561 C821.261735,368.622959 824.246429,364.890434 824.246429,364.890434 C824.246429,364.890434 828.352041,360.03699 829.099872,357.425383 C829.844388,354.812117 833.575255,340.25676 832.829082,341.002934 C832.082908,341.749107 827.605867,342.495281 826.111862,342.868367 C824.621173,343.243112 828.353699,344.733801 817.527551,343.989286 C806.701403,343.24477 801.108418,345.108546 801.108418,345.108546 C797.747321,344.360714 795.135714,348.09324 794.014796,342.868367 C792.893878,337.643495 792.147704,334.658801 789.910842,330.926276 C787.67398,327.19375 786.176658,325.701403 782.820536,320.847959 C779.462755,315.997832 779.832526,318.234694 776.846173,314.505485 C773.859821,310.776276 773.113648,311.890561 771.248214,307.040434 C769.382781,302.188648 767.890434,304.05574 765.650255,297.336862 C763.410077,290.617985 761.91773,289.870153 760.798469,286.139286 C759.679209,282.408418 758.186862,281.285842 757.439031,277.928061 C756.692857,274.568622 748.110204,257.401658 746.989286,256.28074 C745.868367,255.163138 744.002934,249.188776 744.37602,250.309694 C744.750765,251.428954 749.975638,255.16148 749.975638,255.16148 C749.975638,255.16148 752.960332,254.040561 754.08125,254.040561 C755.202168,254.040561 759.679209,258.147832 759.679209,259.63852 C759.679209,261.129209 767.520663,268.22449 769.384439,273.449362 C771.249872,278.674235 773.493367,282.40676 773.863138,283.899107 C774.232908,285.391454 777.96875,291.364158 779.462755,293.604337 C780.95676,295.844515 785.80523,300.321556 786.551403,302.561735 C787.297577,304.801913 794.391199,312.265306 794.391199,317.117092 C794.391199,321.968878 797.747321,328.31301 798.122066,329.805357 C798.496811,331.297704 805.212372,333.166454 805.212372,333.166454 L814.171429,330.926276 C814.171429,330.926276 827.605867,322.340306 829.099872,322.340306 C830.593878,322.340306 842.537628,316.742347 842.537628,316.742347 C842.537628,316.742347 847.387755,312.265306 850.745536,309.653699 C854.103316,307.042092 857.8375,302.190306 858.585332,299.948469 C859.333163,297.706633 860.823852,297.336862 863.808546,293.975765 C866.79324,290.614668 870.90051,287.258546 868.288903,285.018367 C865.677296,282.778189 864.181633,283.52602 860.450765,279.793495 C856.719898,276.060969 857.091327,276.808801 854.478061,271.955357 C851.864796,267.10523 854.851148,261.505612 849.251531,267.10523 C843.651913,272.704847 845.89375,274.195536 840.294133,275.318112 C834.697832,276.435714 832.455995,280.16824 829.844388,276.435714 C827.232781,272.703189 824.621173,274.943367 823.12551,269.34375 C821.629847,263.744133 820.512245,263.371046 820.140816,261.134184 C819.769388,258.897321 820.140816,258.894005 817.154464,253.294388 C814.168112,247.69477 816.408291,239.112117 818.273724,243.963903 C820.139158,248.815689 823.12551,249.561862 827.978954,252.921301 C832.829082,256.279082 835.070918,258.894005 839.547959,259.267092 C844.026658,259.63852 847.759184,259.267092 848.505357,260.011607 C849.251531,260.756122 849.997704,259.640179 851.864796,260.384694 C853.731888,261.129209 854.474745,259.267092 855.222577,262.250128 C855.970408,265.233163 860.074362,265.609566 861.939796,267.475 C863.80523,269.340434 863.806888,268.595918 868.660332,269.340434 C873.513776,270.084949 880.232653,270.088265 880.232653,270.088265 L887.321301,269.71352 L895.532526,270.458036 C895.532526,270.458036 901.506888,273.817474 902.997577,273.817474 C904.488265,273.817474 904.86301,277.924745 908.595536,280.163265 C912.328061,282.401786 913.074235,282.774872 915.312755,285.388138 C917.551276,288.001403 917.179847,289.120663 920.164541,291.73227 C923.149235,294.343878 928.005995,291.360842 928.752168,290.24324 C929.495026,289.122321 933.227551,287.256888 932.484694,290.24324 C931.741837,293.229592 936.213903,292.107015 935.094643,299.200638 C933.975383,306.29426 933.227551,304.423852 935.094643,309.277296 C936.961735,314.13074 945.171301,329.057526 945.546046,333.536224 C945.920791,338.014923 948.157653,336.522577 948.53074,340.629847 C948.903827,344.737117 951.142347,346.226148 951.142347,349.2125 C951.142347,352.198852 953.75727,352.943367 954.128699,355.185204 C954.505102,357.425383 958.609056,355.556633 959.728316,355.185204 C960.849235,354.810459 966.072449,349.958673 966.072449,349.958673 C966.072449,349.958673 968.315944,349.214158 967.939541,345.479974 C967.563138,341.745791 967.939541,342.495281 967.939541,336.897321 C967.939541,331.299362 965.70102,331.299362 966.820281,325.703061 C967.939541,320.10676 970.924235,316.744005 971.672066,314.132398 C972.419898,311.520791 975.404592,307.042092 976.895281,306.667347 C978.385969,306.292602 986.60051,302.190306 988.467602,299.575383 C990.334694,296.960459 993.319388,293.977423 996.30574,290.99273 C999.292092,288.008036 1004.51531,284.27551 1005.63622,285.39477 C1006.75714,286.514031 1006.3824,286.140944 1008.24949,286.140944 C1010.11658,286.140944 1013.47436,287.634949 1016.08597,288.008036 C1018.69923,288.381122 1023.92577,294.725255 1025.04503,298.084694 C1026.16429,301.444133 1025.41811,300.696301 1029.52372,305.549745 C1033.62934,310.399872 1037.36186,307.41352 1037.36186,313.386224 C1037.36186,319.358929 1037.36186,318.984184 1039.22895,321.224362 C1041.09605,323.464541 1043.33291,317.11875 1045.57143,317.866582 C1047.80995,318.614413 1048.18304,317.120408 1050.04847,323.091454 C1051.9139,329.0625 1053.03316,329.064158 1053.40957,335.035204 C1053.78099,341.00625 1053.03482,335.408291 1053.03482,340.258418 C1053.03482,345.111862 1052.66008,345.484949 1053.40957,349.96199 C1054.15906,354.439031 1056.76403,355.936352 1056.39426,356.682526 C1056.39426,356.682526 1058.63278,350.338393 1057.88495,345.858036 C1057.13712,341.377679 1057.88495,335.036862 1059.75204,333.171429 C1061.61913,331.305995 1063.48622,329.438903 1064.97691,334.290689 C1066.47092,339.140816 1067.21709,335.409949 1070.57487,341.007908 C1073.93597,346.607526 1076.92066,345.484949 1077.29375,348.098214 C1077.66684,350.71148 1079.53724,351.086224 1082.14554,353.323087 C1084.7588,355.563265 1086.99732,352.951658 1089.98367,350.71148 C1092.97003,348.471301 1101.17959,340.260077 1101.55599,336.900638 C1101.92742,333.542857 1105.28686,334.287372 1099.31416,325.706378 C1093.34145,317.125383 1093.34145,314.135714 1086.99732,308.910842 C1080.65651,303.685969 1076.92232,303.312883 1081.77577,296.594005 C1086.62921,289.875128 1088.86773,285.398087 1091.85242,287.265179 C1094.83712,289.13227 1100.06033,288.755867 1100.06033,296.222577 C1100.06033,303.689286 1098.56798,311.897194 1103.79286,302.939796 C1109.01773,293.982398 1111.63265,288.757526 1110.13699,290.253189 C1108.64133,291.748852 1113.49643,287.266837 1113.49643,287.266837 C1113.49643,287.266837 1113.87117,283.907398 1120.21696,282.415051 C1126.56276,280.922704 1128.42487,280.174872 1130.66671,279.055612 C1132.90523,277.934694 1139.25102,270.469643 1140.37028,267.111862 C1141.48954,263.754082 1144.47589,257.781378 1143.72972,255.16977 C1142.98355,252.558163 1139.24936,239.86824 1138.50319,240.239668 C1137.75867,240.614413 1138.13176,240.614413 1133.28163,235.389541 C1128.42653,230.164668 1125.06875,226.432143 1124.32258,224.191964 C1123.5764,221.951786 1121.70931,221.578699 1123.94783,218.594005 C1126.18635,215.609311 1127.30893,215.982398 1127.68202,213.369133 C1128.0551,210.755867 1131.03814,208.517347 1125.44018,210.384439 C1119.84222,212.251531 1123.94783,211.13227 1119.09605,210.759184 C1114.24426,210.386097 1101.55599,213.370791 1107.90179,205.534311 C1114.24758,197.697832 1116.10804,192.846046 1117.22895,192.846046 C1118.34987,192.846046 1123.94949,186.500255 1124.32092,192.471301 C1124.69566,198.442347 1126.93253,196.948342 1127.30727,200.680867 C1127.68202,204.413393 1135.14541,196.576913 1135.14541,196.576913 C1135.14541,196.576913 1137.75702,197.323087 1139.62245,199.18852 C1141.48788,201.053954 1141.48954,207.026658 1141.48954,207.026658 C1141.48954,207.026658 1139.99719,205.159566 1144.10281,208.145918 C1148.20842,211.13227 1152.68546,209.638265 1152.68546,215.984056 C1152.68546,222.329847 1152.68546,222.702934 1155.29872,224.195281 C1157.91199,225.687628 1160.52194,224.943112 1162.76543,223.07602 C1165.00893,221.208929 1168.73482,214.491709 1168.73482,214.491709 C1168.73482,214.491709 1169.10791,211.878444 1163.13686,208.145918 C1157.16582,204.413393 1153.43329,201.803444 1151.19643,199.936352 C1148.95957,198.06926 1149.70242,192.472959 1151.93929,190.231122 C1154.17615,187.989286 1155.29872,186.871684 1154.55255,183.88699 C1153.80638,180.902296 1155.67347,178.660459 1161.27143,179.033546 C1166.86939,179.406633 1167.98865,178.662117 1167.98865,178.662117 C1167.98865,178.662117 1169.11122,179.406633 1169.11122,177.168112 C1169.11122,174.929592 1176.19987,164.478189 1174.33278,164.478189 C1172.46569,164.478189 1174.71084,161.866582 1173.58661,157.760969 C1172.46237,153.655357 1177.31913,147.311224 1173.21518,144.324872 C1169.11122,141.33852 1167.98865,139.844515 1165.37704,135.367474 C1162.76543,130.890434 1163.1352,130.142602 1153.43329,129.021684 C1143.73138,127.900765 1139.25102,131.261862 1137.01084,128.277168 C1134.77066,125.292474 1133.65306,132.754209 1132.16071,123.796811 C1130.66837,114.839413 1134.40089,108.866709 1134.40089,108.866709 C1134.40089,108.866709 1140.37194,105.135842 1141.86263,102.522577 C1143.35332,99.9093112 1149.32602,98.790051 1154.18278,100.657143 C1159.03954,102.524235 1166.12321,102.14949 1172.09758,103.272066 C1178.06862,104.389668 1177.69554,108.122194 1180.68189,103.272066 C1183.66658,98.4169643 1180.68189,96.180102 1182.92041,93.5668367 C1185.15893,90.9535714 1187.77219,86.8479592 1189.63763,89.4595663 C1191.50306,92.0744898 1195.24056,94.6844388 1198.22691,91.325 C1201.21161,87.9672194 1202.33087,87.5941327 1202.33087,87.5941327 L1203.8199,89.0881378 C1203.8199,89.0881378 1207.17934,87.2193878 1207.17934,90.5771684 C1207.17934,93.9382653 1210.54043,97.6707908 1208.67334,100.282398 C1206.80625,102.894005 1204.1963,102.522577 1204.1963,108.866709 C1204.1963,115.210842 1204.1963,114.09324 1208.2986,119.31977 C1212.40587,124.542985 1215.01747,120.064286 1215.76365,125.663903 C1216.50982,131.26352 1217.25434,130.14426 1221.36327,133.875128 C1225.47219,137.605995 1224.71939,137.605995 1227.7074,139.846173 C1230.69541,142.086352 1232.18776,144.326531 1232.18776,140.594005 C1232.18776,136.86148 1232.56084,134.996046 1232.18776,131.636607 C1231.81135,128.278827 1235.17411,125.663903 1232.93061,120.065944 C1230.68712,114.467985 1232.55918,114.841071 1228.08048,110.735459 C1223.60179,106.629847 1220.61378,111.483291 1219.12474,105.510587 C1217.63571,99.5378827 1226.21339,96.9262755 1228.45523,96.180102 C1230.69707,95.4339286 1234.04987,90.9552296 1234.79605,93.9415816 C1235.54222,96.9279337 1229.19974,107.750765 1240.02423,96.180102 C1250.84872,84.6094388 1245.99528,89.4628827 1245.99528,89.4628827 C1245.99528,89.4628827 1251.59324,88.7167092 1252.7125,89.4628827 C1253.8301,90.2107143 1256.82143,86.1034439 1255.69719,86.4781888 C1254.57296,86.8529337 1243.75842,80.5054847 1243.75842,80.5054847 L1235.91696,76.0284439 C1235.91696,76.0284439 1238.53189,74.161352 1240.39732,74.5360969 C1242.26276,74.9108418 1242.63916,70.8035714 1244.50625,70.4288265 C1246.37334,70.0540816 1259.05995,73.04375 1261.67487,74.5360969 C1264.2898,76.0284439 1273.61531,76.4015306 1272.49439,75.6553571 C1271.37347,74.9091837 1265.40574,70.4304847 1265.03099,68.9364796 C1264.65957,67.4441327 1251.5949,64.4577806 1247.49094,64.8308673 C1243.38367,65.2022959 1239.65446,66.3215561 1236.29503,65.2022959 C1232.93559,64.0830357 1228.0838,61.0966837 1225.47054,61.0966837 C1222.85727,61.0966837 1190.01569,54.752551 1188.52334,55.1256378 C1187.03099,55.4987245 1184.78916,62.5890306 1183.6699,61.4697704 C1182.55064,60.3505102 1180.6852,60.348852 1175.45702,58.8565051 C1170.22883,57.3641582 1163.14184,56.2432398 1153.80969,55.4987245 C1144.47755,54.7542092 1138.13839,56.244898 1135.52513,53.2585459 C1132.91186,50.2721939 1127.31556,51.3931122 1120.96977,51.0183673 C1114.62564,50.6469388 1107.16059,51.0183673 1103.80115,51.0183673 C1100.44171,51.0183673 1092.60689,50.6469388 1090.7398,50.2721939 C1088.8727,49.897449 1086.63418,47.2858418 1084.39566,46.9144133 C1082.15383,46.5396684 1082.52691,45.7951531 1078.04987,45.0489796 C1073.57283,44.3028061 1073.94426,39.4510204 1072.45191,43.5549745 C1070.95957,47.6622449 1071.70408,46.5413265 1069.46556,48.0336735 C1067.22704,49.5260204 1064.98686,52.5123724 1063.49286,52.5123724 C1061.99885,52.5123724 1056.03112,52.8854592 1054.90855,52.1392857 C1053.78597,51.3931122 1051.92219,50.6469388 1048.18967,50.6469388 C1044.45714,50.6469388 1044.45714,51.0183673 1039.60536,50.2721939 C1034.75357,49.5260204 1031.02105,49.897449 1026.54235,47.6605867 C1022.06365,45.4237245 1022.06365,43.9280612 1018.33112,44.301148 C1014.5986,44.6742347 1014.60191,43.5549745 1009.37372,43.5549745 C1004.14554,43.5549745 997.806378,46.5413265 994.445281,46.9144133 C991.089158,47.2875 983.624107,46.5396684 981.010842,45.4204082 C978.397577,44.301148 977.651403,41.6895408 967.946173,42.8071429 C958.242602,43.9280612 952.644643,43.9280612 954.510077,40.9417092 C956.37551,37.9553571 958.615689,34.9706633 959.734949,34.5975765 C960.855867,34.2244898 963.465816,32.3590561 961.598724,31.6128827 C959.734949,30.865051 957.867857,29.747449 953.390816,29.3727041 C948.913776,28.9979592 949.281888,30.865051 942.566327,30.1188776 C935.850765,29.3727041 946.298852,27.5072704 932.491327,27.8803571 C918.682143,28.255102 915.322704,29.3727041 913.830357,29.3727041 C912.33801,29.3727041 910.46926,26.3880102 906.738393,30.865051 C903.007526,35.3420918 897.777679,37.9553571 890.315944,38.3284439 C882.854209,38.7015306 882.477806,37.5822704 875.389158,40.1938776 C868.30051,42.8054847 863.816837,39.4477041 865.310842,45.41875 C866.804847,51.3897959 868.670281,53.6299745 868.670281,54.7492347 C868.670281,55.8684949 865.310842,63.3335459 861.206888,58.8548469 C857.102934,54.376148 849.634566,36.8344388 852.994005,48.7781888 C856.351786,60.7202806 863.815179,64.827551 856.726531,66.6929847 C849.637883,68.5584184 850.379082,65.9468112 849.259821,65.1989796 C848.142219,64.4528061 849.259821,59.2279337 848.886735,56.2415816 C848.513648,53.2552296 847.767474,51.3897959 846.275128,49.897449 C844.782781,48.405102 845.154209,46.1649235 842.169515,45.41875 C839.184821,44.6725765 841.796429,43.1785714 836.944643,43.1785714 C832.092857,43.1785714 827.988903,40.1922194 829.108163,46.9110969 C830.227423,53.6299745 831.345026,49.1512755 834.329719,55.4954082 C837.314413,61.8395408 842.914031,57.3608418 838.810077,61.8395408 C834.704464,66.3182398 823.881633,64.8258929 821.268367,62.9604592 C818.655102,61.0950255 819.402934,63.7066327 814.547832,60.3471939 C809.69273,56.9877551 811.191709,54.3744898 805.59375,56.9877551 C799.995791,59.6010204 798.128699,64.4528061 795.88852,62.5857143 C793.648342,60.7186224 788.425128,65.1973214 786.558036,62.9604592 C784.690944,60.7235969 777.225893,60.7202806 775.735204,62.9604592 C774.244515,65.2006378 769.7625,64.8258929 763.418367,67.8122449 C757.074235,70.7985969 758.93801,68.1836735 751.101531,74.5294643 C743.265051,80.8752551 738.783036,86.0984694 736.173087,81.9928571 C733.559821,77.8889031 719.375893,70.7969388 724.97551,69.6760204 C730.575128,68.555102 733.186735,66.3182398 736.173087,68.9298469 C739.159439,71.5414541 744.012883,70.7969388 744.75574,68.9298469 C745.498597,67.0627551 748.86301,65.1973214 744.382653,62.958801 C739.902296,60.7202806 739.530867,62.2109694 732.440561,59.5993622 C725.348597,56.9860969 732.440561,57.7339286 722.735332,56.2399235 C713.030102,54.7459184 708.92449,54.0014031 706.312883,53.2552296 C703.701276,52.5090561 699.96875,53.2552296 696.237883,52.8821429 C692.507015,52.5090561 689.89375,51.7628827 686.532653,52.1359694 C683.174872,52.5090561 681.309439,51.7628827 676.829082,55.1223214 C672.348724,58.4817602 668.989286,59.9741071 666.004592,62.5857143 C663.019898,65.1973214 655.183418,70.423852 652.94324,72.2909439 C650.703061,74.1580357 642.864923,80.1274235 642.11875,82.367602 C641.372577,84.6077806 642.864923,86.4732143 639.878571,87.9655612 C636.892219,89.4579082 633.907526,89.4579082 631.667347,89.8309949 C629.427168,90.2040816 631.667347,86.4715561 629.427168,90.2040816 C627.18699,93.9366071 627.934821,107.372704 629.800255,105.505612 C631.665689,103.63852 630.546429,97.6691327 638.757653,103.26875 C646.968878,108.868367 652.195408,108.118878 651.820663,113.34375 C651.445918,118.568622 657.418622,118.195536 658.164796,119.316454 C658.910969,120.434056 662.643495,117.822449 662.643495,117.822449 C662.643495,117.822449 670.854719,112.597577 670.854719,109.985969 C670.854719,107.374362 676.079592,101.401658 676.079592,101.401658 C676.079592,101.401658 672.345408,99.5362245 672.345408,95.803699 C672.345408,92.0711735 673.467985,90.9502551 674.2125,87.2177296 C674.957015,83.4852041 670.106888,87.2193878 681.304464,80.1257653 C692.502041,73.0321429 693.246556,77.8889031 693.246556,77.8889031 C693.246556,77.8889031 694.737245,79.38125 692.871811,81.6197704 C691.006378,83.8582908 687.646939,89.8326531 686.900765,90.5771684 C686.154592,91.3216837 690.260204,97.2960459 692.12398,97.2960459 C693.991071,97.2960459 697.723597,95.8020408 699.963776,96.1751276 C702.203954,96.5498724 705.934821,95.0575255 707.054082,95.803699 C708.175,96.5498724 710.786607,98.7883929 708.919515,100.655485 C707.052423,102.522577 702.946811,104.759439 699.963776,104.014923 C696.98074,103.270408 692.497066,98.0422194 695.110332,105.50727 C697.723597,112.972321 694.737245,114.837755 692.497066,114.464668 C690.260204,114.091582 685.40676,110.360714 686.152934,115.958673 C686.899107,121.556633 681.302806,125.2875 680.181888,125.2875 C679.060969,125.2875 676.824107,124.914413 676.824107,124.914413 C676.824107,124.914413 673.46301,124.539668 671.599235,124.539668 C669.732143,124.539668 665.999617,126.405102 664.880357,127.899107 C663.759439,129.391454 662.267092,128.273852 660.401658,128.273852 C658.536224,128.273852 660.401658,126.033673 656.669133,125.2875 C652.936607,124.541327 650.698087,123.795153 648.459566,125.2875 C646.221046,126.779847 642.861607,127.52602 641.367602,126.40676 C639.873597,125.2875 642.115434,122.672577 639.127423,124.16824 C636.139413,125.663903 633.902551,129.766199 632.783291,130.140944 C631.664031,130.512372 636.14273,130.140944 631.664031,130.512372 C627.185332,130.887117 625.319898,132.008036 623.079719,132.752551 C620.839541,133.497066 623.825893,137.977423 619.720281,139.46977 C615.614668,140.962117 618.602679,137.604337 614.495408,140.962117 C610.389796,144.323214 609.641964,147.307908 608.151276,147.680995 C606.65727,148.05574 607.032015,148.800255 603.672577,149.173342 C600.313138,149.546429 600.687883,149.919515 598.819133,150.292602 C596.950383,150.665689 599.193878,151.41352 595.088265,150.665689 C590.982653,149.917857 587.996301,151.41352 588.742474,152.905867 C589.488648,154.398214 603.297832,158.503827 592.848087,158.13074 C582.398342,157.757653 585.757781,159.623087 587.996301,161.115434 C590.234821,162.607781 591.354082,164.100128 592.475,164.474872 C593.595918,164.849617 595.459694,169.328316 595.459694,169.328316 C595.459694,169.328316 598.446046,168.953571 596.580612,171.566837 C594.715179,174.180102 597.326786,174.926276 595.459694,178.285714 C593.592602,181.645153 593.59426,179.404974 592.101913,180.151148 C590.609566,180.897321 588.369388,183.510587 584.262117,181.270408 C580.154847,179.03023 577.173469,177.910969 572.320026,177.539541 C567.46824,177.164796 570.82602,176.420281 567.46824,179.03023 C564.108801,181.645153 563.362628,184.629847 563.737372,187.987628 C564.110459,191.345408 564.483546,195.825765 563.362628,198.065944 C562.241709,200.306122 562.243367,202.544643 562.987883,205.904082 C563.735714,209.261862 565.975893,210.757526 565.975893,210.757526 C565.975893,210.757526 571.200765,211.502041 572.320026,211.876786 C573.439286,212.251531 575.679464,211.130612 578.664158,212.994388 C581.65051,214.86148 584.636862,215.609311 586.502296,213.369133 C588.36773,211.128954 595.832781,208.517347 598.074617,206.278827 C600.316454,204.040306 601.805485,203.294133 600.686224,201.053954 C599.566964,198.813776 602.926403,193.215816 604.791837,192.096556 C606.65727,190.977296 610.762883,189.856378 610.762883,189.856378 L615.241582,183.139158 C615.241582,183.139158 618.974107,179.031888 620.839541,179.406633 C622.704974,179.781378 633.154719,183.513903 632.410204,178.662117 C631.665689,173.810332 633.156378,172.316327 634.275638,174.18176 C635.394898,176.047194 638.38125,175.30102 638.38125,175.30102 C638.38125,175.30102 639.873597,174.556505 640.992857,175.675765 C642.112117,176.793367 643.604464,181.648469 645.844643,182.766071 C648.084821,183.88699 649.950255,185.00625 651.44426,185.750765 C652.938265,186.495281 654.430612,185.750765 657.416964,188.364031 C660.403316,190.977296 663.38801,192.471301 663.759439,193.588903 C664.135842,194.708163 666.747449,197.321429 666.747449,197.321429 C666.747449,197.321429 669.359056,198.067602 668.612883,199.561607 C667.866709,201.055612 664.135842,205.534311 662.26875,206.278827 C660.401658,207.023342 655.551531,205.530995 657.416964,207.025 C659.28074,208.517347 661.895663,210.384439 663.014923,209.26352 C664.135842,208.14426 671.22449,200.679209 671.22449,200.679209 C671.22449,200.679209 670.851403,201.052296 671.22449,198.812117 C671.597577,196.571939 671.22449,193.96199 673.091582,195.08125 C674.957015,196.202168 676.077934,197.694515 676.824107,196.202168 C677.570281,194.709821 678.316454,195.455995 676.449362,194.336735 C674.58227,193.217474 670.10523,186.871684 667.865051,186.498597 C665.624872,186.12551 660.025255,182.391327 660.025255,182.391327 C660.025255,182.391327 658.907653,181.272066 656.294388,178.287372 C653.681122,175.302679 652.936607,176.047194 652.187117,173.433929 C651.437628,170.820663 649.200765,167.462883 653.308036,168.209056 C657.415306,168.95523 660.025255,171.566837 663.757781,173.807015 C667.490306,176.047194 666.745791,176.791709 670.103571,179.031888 C673.461352,181.272066 673.837755,183.512245 676.447704,183.139158 C679.059311,182.766071 682.047321,184.631505 682.047321,187.990944 C682.047321,191.350383 682.791837,195.08125 683.53801,195.829082 C684.284184,196.576913 686.522704,198.06926 687.270536,199.561607 C688.018367,201.053954 689.510714,204.78648 690.628316,206.278827 C691.749235,207.771173 692.868495,208.892092 693.987755,210.759184 C695.107015,212.624617 695.480102,210.384439 696.599362,211.13227 C697.720281,211.878444 699.212628,211.503699 699.212628,210.011352 C699.212628,208.519005 699.584056,205.90574 699.584056,205.90574 C699.584056,205.90574 704.812245,204.413393 703.319898,203.665561 C701.827551,202.91773 697.345536,198.440689 697.720281,196.948342 C698.095026,195.455995 697.720281,192.471301 699.584056,192.844388 C701.451148,193.215816 703.31824,196.575255 707.423852,193.588903 C711.529464,190.602551 716.38125,189.110204 714.887245,193.588903 C713.39324,198.067602 715.263648,198.812117 714.887245,203.665561 C714.515816,208.519005 716.382908,207.025 718.996173,209.638265 C721.609439,212.251531 723.473214,212.626276 725.338648,213.370791 C727.204082,214.115306 730.190434,213.745536 733.178444,214.118622 C736.166454,214.491709 738.03023,212.997704 740.643495,213.745536 C743.253444,214.491709 749.226148,213.370791 750.347066,214.118622 C751.467985,214.866454 755.946684,212.626276 756.318112,215.237883 C756.691199,217.851148 758.185204,214.864796 757.065944,220.835842 C755.946684,226.806888 754.452679,230.9125 754.452679,230.9125 C750.347066,238.750638 748.854719,240.61773 746.987628,240.990816 C745.123852,241.363903 744.002934,242.483163 740.645153,242.110077 C737.285714,241.735332 733.180102,242.110077 728.328316,240.990816 C723.476531,239.871556 714.517474,242.110077 710.786607,239.869898 C707.05574,237.629719 701.829209,239.496811 699.587372,236.885204 C697.345536,234.273597 693.617985,234.645026 692.12398,233.152679 C690.629974,231.660332 689.885459,227.556378 689.885459,233.527423 C689.885459,239.498469 686.52602,239.871556 685.779847,242.857908 C685.033673,245.84426 686.897449,244.350255 682.791837,243.977168 C678.686224,243.602423 677.566964,245.842602 671.595918,241.365561 C665.624872,236.88852 662.63852,236.886862 659.653827,235.01977 C656.669133,233.152679 653.681122,238.377551 650.696429,232.408163 C647.711735,226.438776 643.604464,231.287245 643.231378,226.435459 C642.858291,221.582015 643.231378,221.958418 643.604464,218.972066 C643.977551,215.985714 648.083163,213.374107 646.21773,212.254847 C644.352296,211.135587 645.842985,209.268495 643.231378,210.389413 C640.61977,211.510332 636.887245,211.88176 633.900893,213.00102 C630.914541,214.121939 640.618112,213.00102 626.062755,214.121939 C611.507398,215.242857 607.400128,216.733546 607.400128,216.733546 C607.400128,216.733546 606.280867,215.987372 604.413776,217.479719 C602.546684,218.972066 599.935077,221.212245 597.323469,220.092985 C594.711862,218.972066 593.217857,219.345153 590.979337,219.719898 C588.740816,220.094643 587.248469,217.854464 584.635204,219.719898 C582.021939,221.583673 579.037245,222.331505 577.916327,221.583673 C576.79375,220.827551 574.926658,217.842857 574.926658,217.842857 L574.926658,217.842857 Z" id="Shape" style="mix-blend-mode: lighten;"></path>
            <path d="M824.612883,463.421811 C823.493622,467.529082 819.38801,473.498469 819.38801,473.498469 L811.921301,477.230995 C811.921301,477.230995 809.31301,479.471173 807.817347,479.84426 C806.325,480.215689 802.592474,482.084439 802.592474,482.084439 C802.592474,482.084439 799.234694,481.336607 800.352296,484.694388 C801.471556,488.053827 801.846301,492.161097 801.471556,493.278699 C801.100128,494.399617 801.100128,496.639796 801.100128,499.626148 C801.100128,502.6125 799.980867,506.341709 798.113776,507.087883 C796.246684,507.834056 794.38125,508.581888 794.754337,511.195153 C795.127423,513.808418 795.129082,521.644898 795.129082,521.644898 L799.982526,529.109949 C799.982526,529.109949 801.474872,527.990689 804.461224,527.990689 C807.447577,527.990689 810.43227,525.38074 810.43227,525.38074 C810.43227,525.38074 813.793367,526.123597 813.416964,522.021301 C813.043878,517.914031 814.912628,513.063903 814.536224,511.942985 C814.164796,510.823724 817.897321,505.970281 817.897321,504.852679 C817.897321,503.73176 821.629847,498.510204 821.629847,496.641454 C821.629847,494.772704 824.241454,491.789668 824.614541,489.552806 C824.987628,487.315944 825.360714,482.087755 826.106888,480.595408 C826.853061,479.103061 827.227806,477.609056 827.227806,476.116709 L827.227806,471.63801 L824.612883,463.421811 L824.612883,463.421811 Z" id="Shape" style="mix-blend-mode: lighten;"></path>
            <path d="M1116.84592,513.808418 C1115.72666,515.299107 1114.98048,531.350128 1114.23431,533.215561 C1113.48814,535.080995 1111.99413,544.786224 1112.74362,547.023087 C1113.49311,549.259949 1114.6074,557.47449 1113.86288,560.087755 C1113.11837,562.70102 1114.23597,570.910587 1112.36722,570.5375 C1110.50344,570.162755 1109.75893,570.912245 1109.75893,572.029847 C1109.75893,573.150765 1112.36722,575.387628 1112.36722,575.387628 C1112.36722,575.387628 1116.84923,575.389286 1118.71467,575.014541 C1120.5801,574.639796 1124.31263,572.774362 1127.29898,572.774362 C1130.28533,572.774362 1132.15242,570.534184 1134.76237,570.534184 C1137.37564,570.534184 1142.97526,568.670408 1144.4676,569.414923 C1145.95995,570.159439 1148.19847,564.936224 1150.81173,566.057143 C1153.425,567.178061 1159.02462,563.443878 1161.63622,563.443878 C1164.24783,563.443878 1165.36875,559.336607 1168.3551,560.086097 C1171.34145,560.835587 1176.93941,558.59375 1179.55268,559.709694 C1182.16097,560.83227 1186.2699,555.978827 1188.13533,559.709694 C1190.00077,563.440561 1195.60204,564.936224 1195.60204,566.801658 C1195.60204,568.667092 1195.22398,572.774362 1195.22398,572.774362 L1199.70434,572.399617 C1199.70434,572.399617 1206.79298,567.920918 1207.91556,567.920918 C1209.03814,567.920918 1211.64809,564.190051 1211.64809,566.057143 C1211.64809,567.920918 1209.40625,572.029847 1208.66173,573.893622 C1207.91556,575.760714 1209.40625,578.000893 1209.40625,578.000893 C1209.40625,578.000893 1213.14209,579.866327 1211.64809,583.224107 C1210.15408,586.583546 1212.01952,585.839031 1211.64809,588.44898 C1211.27334,591.062245 1211.64809,589.941327 1213.13712,591.433673 C1214.62615,592.92602 1217.2477,595.54426 1219.48457,595.167857 C1221.72143,594.791454 1222.46926,592.55625 1224.33635,593.67551 C1226.20179,594.79477 1229.93265,594.048597 1231.05191,595.542602 C1232.17615,597.033291 1223.96327,600.765816 1238.14554,594.423342 C1252.32781,588.080867 1253.81684,586.583546 1255.68393,584.343367 C1257.55102,582.103189 1259.79452,579.866327 1261.28355,578.372321 C1262.77258,576.878316 1261.65995,577.253061 1266.13533,573.893622 C1270.61403,570.535842 1270.61403,572.028189 1274.72296,565.682398 C1278.83189,559.336607 1281.81161,557.099745 1282.5611,555.978827 C1283.31059,554.857908 1284.79962,554.48648 1285.1727,550.004464 C1285.54579,545.527423 1288.53048,541.421811 1288.53048,539.929464 C1288.53048,538.437117 1289.64974,536.200255 1289.27666,533.585332 C1288.90357,530.970408 1290.77066,527.242857 1288.53048,523.510332 C1286.29031,519.777806 1289.64974,518.287117 1286.29031,516.789796 C1282.93087,515.292474 1280.69235,516.045281 1279.94617,513.432015 C1279.2,510.81875 1276.21199,511.191837 1275.09273,504.101531 C1273.97347,497.011224 1269.49477,496.261735 1269.49477,496.261735 C1269.49477,496.261735 1265.01607,494.396301 1266.13533,493.651786 C1267.25459,492.90727 1267.62934,487.677423 1267.25791,486.185077 C1266.88316,484.69273 1266.88316,481.333291 1265.76556,479.096429 C1264.6463,476.854592 1263.89847,473.871556 1262.77921,471.256633 C1261.65995,468.641709 1259.79452,467.897194 1259.04668,464.9125 C1258.29885,461.927806 1257.17959,460.80523 1256.80816,460.060714 C1256.43176,459.314541 1255.68393,455.583673 1254.94107,459.685969 C1254.1949,463.791582 1252.69923,471.628061 1252.69923,471.628061 C1252.69923,471.628061 1249.71288,477.97551 1248.59362,479.840944 C1247.47436,481.704719 1246.3551,486.558163 1244.48967,486.183418 C1242.62423,485.808673 1241.5,488.052168 1240.01097,487.675765 C1238.52194,487.299362 1236.27844,488.05051 1235.15918,486.93125 C1234.03992,485.81199 1231.05357,482.825638 1229.55957,482.450893 C1228.06722,482.079464 1226.94796,479.09477 1225.82704,479.09477 C1224.70612,479.09477 1222.84069,476.479847 1223.21543,474.9875 C1223.58686,473.495153 1223.95995,470.137372 1224.33469,468.643367 C1224.70612,467.15102 1226.94796,463.789923 1226.94796,463.789923 C1226.94796,463.789923 1226.94796,461.551403 1225.08087,461.551403 C1223.21378,461.551403 1222.84069,461.551403 1218.73508,461.176658 C1214.62946,460.801913 1213.51352,460.430485 1212.0162,460.430485 C1210.51888,460.430485 1213.51186,459.684311 1209.40459,460.803571 C1205.29732,461.922832 1203.43355,464.910842 1200.82028,467.524107 C1198.21199,470.135714 1200.44885,469.387883 1198.21199,470.135714 C1195.97513,470.883546 1196.3449,468.268622 1194.85089,472.375893 C1193.35689,476.483163 1195.59872,477.599107 1194.47449,478.346939 C1193.35026,479.09477 1185.52041,475.735332 1185.52041,475.735332 C1185.52041,475.735332 1187.38584,475.360587 1185.89184,473.495153 C1184.39783,471.629719 1182.90714,469.018112 1180.67028,470.137372 C1178.43342,471.256633 1176.55969,472.004464 1175.07066,473.869898 C1173.58163,475.735332 1173.57666,477.227679 1172.4574,478.720026 C1171.33814,480.212372 1168.35344,480.212372 1167.9787,481.706378 C1167.60395,483.200383 1167.60561,486.93125 1166.48801,487.304337 C1165.36875,487.679082 1164.99566,485.815306 1163.8764,485.440561 C1162.75714,485.067474 1163.12857,482.081122 1162.38406,483.948214 C1161.63954,485.815306 1160.89171,485.438903 1159.77245,488.425255 C1158.64987,491.411607 1158.27844,494.024872 1157.15918,494.397959 C1156.03992,494.771046 1157.15918,495.144133 1153.79809,497.011224 C1150.44196,498.876658 1149.69413,498.876658 1144.84401,501.116837 C1139.99388,503.357015 1141.11314,503.357015 1137.7537,503.728444 C1134.39592,504.103189 1133.64643,505.222449 1131.40791,505.595536 C1129.16607,505.968622 1127.67704,506.340051 1125.4352,508.58023 C1123.19337,510.820408 1121.33125,511.564923 1119.8389,511.939668 C1118.34656,512.314413 1116.84592,513.808418 1116.84592,513.808418 L1116.84592,513.808418 Z" id="Shape" style="mix-blend-mode: lighten;"></path>
            <path d="M1138.86467,366.384439 C1137.37398,368.626276 1132.52219,375.341837 1130.65676,375.716582 C1128.78967,376.08801 1126.92258,377.95676 1125.43023,377.582015 C1123.93788,377.20727 1120.57844,377.582015 1119.45918,382.433801 C1118.33992,387.285587 1116.47283,389.898852 1115.35026,389.524107 C1114.22768,389.149362 1117.21569,396.614413 1110.87321,393.631378 C1104.53074,390.648342 1106.76926,396.244643 1106.02143,397.738648 C1105.2736,399.232653 1107.14069,403.336607 1107.51378,404.828954 C1107.89018,406.321301 1109.00612,408.934566 1110.50013,411.171429 C1111.99413,413.408291 1113.11173,416.023214 1115.725,415.280357 C1118.33827,414.5375 1126.54617,415.280357 1126.54617,415.280357 C1126.54617,415.280357 1129.53584,416.399617 1131.39962,416.399617 C1133.26505,416.399617 1133.6398,415.653444 1134.7574,415.653444 C1135.875,415.653444 1138.11518,411.91926 1137.74375,411.547832 C1137.37066,411.171429 1136.25306,410.053827 1138.48992,407.813648 C1140.72679,405.573469 1143.34171,404.828954 1143.71645,402.215689 C1144.0912,399.602423 1142.97028,399.604082 1144.08954,398.108418 C1145.2088,396.612755 1147.82041,396.992474 1147.07589,395.496811 C1146.33138,394.001148 1147.82041,394.377551 1146.32806,391.389541 C1144.83571,388.401531 1142.96862,387.283929 1144.46097,383.551403 C1145.95332,379.818878 1147.45064,379.072704 1147.07589,376.834184 C1146.70115,374.595663 1148.94133,373.847832 1146.32806,371.234566 C1143.71811,368.624617 1142.59719,367.876786 1140.7301,367.127296 L1138.86467,366.384439 L1138.86467,366.384439 Z" id="Shape" style="mix-blend-mode: lighten;"></path>
            <path d="M1212.0162,403.708036 C1213.51186,403.334949 1218.73508,399.602423 1219.10982,406.321301 C1219.48457,413.040179 1219.85268,411.171429 1222.09617,414.903954 C1224.33967,418.63648 1225.82372,419.759056 1228.43699,417.891964 C1231.05026,416.024872 1234.03495,416.023214 1234.78112,412.667092 C1235.52895,409.307653 1235.52895,409.307653 1237.76747,409.307653 C1240.00599,409.307653 1240.75383,408.934566 1241.87806,410.43023 C1242.99566,411.91926 1243.73852,410.426913 1248.59362,413.040179 C1253.44872,415.653444 1257.54936,414.903954 1260.53903,417.518878 C1263.5287,420.133801 1265.01773,419.760714 1269.12168,421.251403 C1273.22564,422.742092 1271.3602,420.50523 1275.09273,424.610842 C1278.82526,428.716454 1277.33622,429.834056 1279.19834,431.701148 C1281.06378,433.566582 1282.55944,430.207143 1281.81161,434.685842 C1281.06378,439.164541 1275.84056,434.685842 1283.6787,441.028316 C1291.51684,447.370791 1292.6361,448.496684 1295.24605,450.360459 C1297.86097,452.227551 1299.7264,454.46773 1297.48954,454.46773 C1295.25268,454.46773 1288.1574,454.46773 1287.41288,453.346811 C1286.66837,452.225893 1283.30727,451.479719 1281.06543,448.868112 C1278.82857,446.258163 1273.97679,444.389413 1272.85918,442.150893 C1271.73661,439.909056 1270.24426,439.164541 1268.37883,439.164541 C1266.51339,439.164541 1264.64796,441.403061 1262.03304,444.016327 C1259.41811,446.629592 1260.54401,442.525638 1257.18125,443.64324 C1253.82015,444.764158 1250.0926,443.268495 1248.22385,441.776148 C1246.3551,440.283801 1246.73316,438.045281 1243.74847,439.164541 C1240.76378,440.283801 1238.89668,439.537628 1240.01594,437.299107 C1241.1352,435.060587 1240.38737,432.072577 1240.38737,432.072577 C1240.38737,432.072577 1241.50995,428.340051 1238.89834,427.595536 C1236.28673,426.85102 1236.28508,424.237755 1233.67181,423.488265 C1231.05855,422.738776 1226.95459,420.876658 1226.95459,420.876658 C1226.95459,420.876658 1226.58151,420.876658 1225.46059,420.503571 C1224.33967,420.130485 1224.34133,420.128827 1221.35497,419.384311 C1218.36862,418.639796 1216.12844,419.380995 1214.63776,417.517219 C1213.14209,415.651786 1213.88992,413.03852 1213.88992,413.03852 C1213.88992,413.03852 1219.86097,413.784694 1213.88992,409.305995 L1207.91888,404.828954 C1207.91888,404.828954 1208.66173,404.454209 1208.29031,403.708036 C1207.9139,402.958546 1212.0162,403.708036 1212.0162,403.708036 L1212.0162,403.708036 Z" id="Shape" style="mix-blend-mode: lighten;"></path>
            <path d="M1044.06747,372.728571 C1044.06747,372.728571 1045.93291,374.597321 1048.91926,374.222577 C1051.90561,373.847832 1054.14082,380.193622 1056.01122,382.432143 C1057.875,384.672321 1058.99758,385.791582 1063.10153,388.404847 C1067.20548,391.016454 1066.8324,386.164668 1072.43202,394.002806 C1078.03163,401.840944 1075.41671,396.989158 1078.02997,401.839286 C1080.64158,406.696046 1082.13559,409.305995 1083.62793,410.428571 C1085.12028,411.551148 1086.2412,414.530867 1086.61594,415.651786 C1086.98737,416.771046 1089.59898,420.128827 1089.59898,421.249745 C1089.59898,422.370663 1090.34681,425.355357 1088.10829,427.966964 C1085.86977,430.578571 1084.00102,430.953316 1084.00102,430.953316 C1084.00102,430.953316 1079.52232,428.713138 1078.02997,426.474617 C1076.53763,424.236097 1074.67219,422.369005 1072.05727,417.891964 C1069.44235,413.414923 1066.45931,408.559821 1064.96696,406.321301 C1063.47462,404.082781 1061.23444,401.839286 1060.11518,399.602423 C1058.99592,397.365561 1056.00957,390.645026 1054.51722,389.897194 C1053.02487,389.149362 1052.65013,386.9125 1050.03686,384.299235 C1047.42691,381.685969 1047.79834,379.447449 1046.67908,377.955102 C1045.55982,376.462755 1042.94821,373.1 1042.94821,373.1 L1044.06747,372.728571 L1044.06747,372.728571 Z" id="Shape" style="mix-blend-mode: lighten;"></path>
            <path d="M318.148469,663.845663 C315.535204,662.353316 309.937245,659.740051 308.071811,658.247704 C306.206378,656.755357 300.608418,648.540816 300.608418,648.540816 L296.501148,640.702679 C296.501148,640.702679 291.65102,634.731633 292.770281,632.493112 C293.889541,630.252934 296.129719,628.760587 296.129719,627.641327 C296.129719,626.522066 298.36824,623.534056 296.501148,622.416454 C294.635714,621.295536 294.635714,620.924107 293.514796,617.564668 C292.395536,614.206888 292.395536,611.217219 290.903189,610.472704 C289.410842,609.728189 288.289923,604.874745 286.797577,604.501658 C285.30523,604.128571 283.811224,601.515306 283.811224,601.515306 L281.571046,571.283673 C281.571046,571.283673 280.823214,557.476148 280.078699,554.488138 C279.334184,551.500128 281.197959,545.159311 279.330867,539.559694 C277.463776,533.960077 279.705612,527.244515 278.584694,525.004337 C277.463776,522.764158 279.330867,516.421684 278.211607,510.450638 C277.092347,504.479592 282.690306,497.014541 278.211607,494.77602 C273.732908,492.5375 277.092347,489.176403 273.359821,489.176403 C269.627296,489.176403 267.015689,487.309311 263.65625,484.699362 C260.296811,482.086097 253.95102,477.232653 252.085587,475.365561 C250.220153,473.501786 244.247449,468.648342 242.382015,467.155995 C240.516582,465.663648 238.64949,459.317857 237.157143,457.450765 C235.664796,455.58699 234.918622,449.989031 232.678444,446.629592 C230.438265,443.271811 227.453571,437.673852 226.70574,436.552934 C225.957908,435.432015 217.748342,425.730102 217.748342,425.730102 L218.494515,419.759056 C218.494515,419.759056 224.092474,416.399617 223.346301,415.280357 C222.600128,414.161097 223.721046,413.03852 221.106122,410.801658 C218.491199,408.564796 218.865944,404.454209 221.106122,402.590434 C223.346301,400.721684 226.704082,394.750638 226.704082,394.750638 L232.302041,385.421811 C232.302041,385.421811 236.782398,380.566709 236.782398,377.208929 C236.782398,373.851148 243.126531,371.612628 239.394005,368.626276 C235.66148,365.639923 237.528571,363.026658 236.407653,360.78648 C235.286735,358.546301 236.034566,357.055612 239.394005,354.815434 C242.753444,352.575255 248.72449,344.365689 248.72449,344.365689 C248.72449,344.365689 253.203189,343.24477 254.322449,343.24477 C255.441709,343.24477 257.308801,331.299362 260.66824,339.1375 C264.027679,346.975638 265.146939,342.870026 264.027679,348.467985 C262.908418,354.065944 265.520026,352.948342 267.012372,351.455995 C268.504719,349.963648 266.264541,352.575255 269.250893,345.854719 C272.237245,339.134184 271.117985,336.89898 272.983418,338.766071 C274.848852,340.633163 275.595026,341.00625 278.954464,342.12551 C282.312245,343.24477 283.433163,342.870026 284.550765,345.110204 C285.670026,347.350383 285.298597,344.364031 291.64273,345.484949 C297.986862,346.605867 306.94426,343.24477 305.825,346.975638 C304.70574,350.708163 302.465561,346.602551 307.690434,350.708163 C312.915306,354.813776 313.663138,355.559949 316.647832,356.307781 C319.632526,357.055612 322.245791,356.680867 326.726148,361.159566 C331.206505,365.638265 332.324107,366.011352 333.443367,368.248214 C334.562628,370.485077 336.428061,368.996046 338.295153,371.234566 C340.162245,373.473087 342.773852,373.476403 345.385459,373.476403 C347.997066,373.476403 345.385459,371.234566 349.491071,374.222577 C353.596684,377.210587 356.583036,377.578699 358.448469,383.551403 C360.313903,389.524107 364.046429,389.15102 361.060077,395.123724 C358.073724,401.096429 352.104337,403.708036 354.715944,403.334949 C357.327551,402.960204 362.180995,400.720026 363.673342,401.09477 C365.165689,401.466199 365.911862,399.97551 368.152041,401.09477 C370.392219,402.214031 370.765306,399.602423 370.392219,402.214031 C370.019133,404.825638 370.017474,402.214031 370.017474,404.827296 C370.017474,407.440561 369.271301,402.214031 373.75,403.334949 C378.228699,404.455867 375.615434,401.093112 380.840306,405.946556 C386.065179,410.8 386.066837,409.307653 387.930612,411.91926 C389.797704,414.529209 391.663138,410.428571 392.784056,411.546173 C393.904974,412.663776 397.262755,411.917602 400.622194,412.665434 C403.981633,413.413265 401.741454,410.426913 406.967985,413.784694 C412.191199,417.142474 417.41773,416.023214 418.53699,419.009566 C419.65625,421.995918 422.64426,420.875 424.134949,422.742092 C425.625638,424.609184 426.373469,421.99426 427.867474,424.609184 C429.359821,427.219133 433.840179,426.472959 433.092347,429.084566 C432.344515,431.69949 434.209949,430.205485 433.463776,433.936352 C432.717602,437.667219 430.104337,443.64324 427.867474,445.133929 C425.630612,446.624617 425.628954,448.493367 424.134949,450.358801 C422.640944,452.224235 423.015689,448.493367 421.148597,453.71824 C419.281505,458.943112 419.65625,459.690944 418.163903,464.541071 C416.671556,469.391199 417.790816,464.541071 416.671556,469.392857 C415.552296,474.244643 416.298469,477.230995 415.179209,482.830612 C414.059949,488.43023 414.433036,488.428571 413.686862,492.534184 C412.940689,496.639796 415.552296,490.670408 412.192857,499.251403 C408.835077,507.837372 408.46199,507.460969 407.34273,511.195153 C406.221811,514.929337 407.715816,511.941327 403.610204,514.181505 C399.504592,516.421684 401.74477,515.673852 396.891327,517.167857 C392.041199,518.660204 386.068495,520.155867 384.203061,520.527296 C382.337628,520.898724 374.872577,523.138903 377.112755,527.615944 C379.352934,532.092985 379.352934,532.842474 377.112755,538.442092 C374.872577,544.041709 371.514796,545.907143 371.514796,548.517092 C371.514796,551.128699 370.020791,553.740306 369.649362,555.607398 C369.274617,557.47449 373.007143,553.740306 368.530102,559.339923 C364.053061,564.939541 363.678316,563.445536 362.184311,566.804974 C360.691964,570.162755 362.184311,567.54949 360.691964,570.162755 C359.199617,572.77602 355.467092,573.893622 355.467092,573.893622 C355.467092,573.893622 355.83852,575.760714 354.346173,575.014541 C352.853827,574.268367 353.226913,575.387628 347.627296,573.893622 C342.027679,572.399617 341.283163,568.672066 340.53699,571.282015 C339.790816,573.893622 340.910077,575.389286 344.269515,578.000893 C347.627296,580.614158 353.226913,581.358673 351.732908,583.973597 C350.238903,586.58852 350.240561,586.586862 349.121301,588.079209 C348.000383,589.573214 350.613648,588.452296 348.000383,589.573214 C345.387117,590.694133 343.89477,595.545918 342.77551,595.545918 C341.65625,595.545918 340.908418,597.411352 339.416071,596.665179 C337.923724,595.919005 334.192857,593.30574 333.445026,594.798087 C332.697194,596.290434 331.204847,592.930995 331.577934,598.155867 C331.95102,603.38074 332.698852,606.367092 330.83176,607.48801 C328.964668,608.608929 324.485969,607.48801 324.485969,607.48801 L323.739796,605.620918 L321.128189,606.367092 C321.128189,606.367092 320.008929,610.845791 321.874362,611.591964 C323.739796,612.338138 323.366709,613.082653 325.232143,615.322832 C327.097577,617.56301 325.979974,621.668622 325.979974,621.668622 C325.979974,621.668622 325.979974,622.789541 324.114541,624.654974 C322.249107,626.520408 321.501276,628.014413 321.128189,629.133673 C320.753444,630.252934 318.514923,635.106378 321.874362,634.731633 C325.232143,634.356888 327.847066,632.491454 327.847066,638.464158 C327.847066,644.436862 329.339413,642.944515 327.47398,647.048469 C325.606888,651.154082 324.114541,651.527168 323.741454,655.258036 C323.370026,658.990561 324.116199,659.363648 324.862372,661.603827 C325.608546,663.844005 327.475638,662.723087 325.608546,663.844005 C323.746429,664.963265 318.148469,663.845663 318.148469,663.845663 L318.148469,663.845663 Z" id="Shape" style="mix-blend-mode: lighten;"></path>
            <path d="M221.855612,360.040306 L219.244005,356.309439 C219.244005,356.309439 218.124745,354.067602 216.257653,353.696173 C214.390561,353.324745 210.284949,348.471301 210.284949,348.471301 C210.284949,348.471301 208.419515,346.978954 208.419515,344.367347 C208.419515,341.75574 206.92551,337.650128 208.04477,333.171429 C209.164031,328.69273 209.538776,323.09477 209.165689,321.600765 C208.790944,320.108418 211.031122,319.735332 208.419515,318.241327 C205.807908,316.747321 200.581378,316.375893 197.221939,316.375893 C193.864158,316.375893 189.756888,317.496811 189.010714,317.86824 C188.264541,318.241327 193.116327,306.672321 193.8625,304.806888 C194.608673,302.941454 197.968112,294.728571 197.968112,293.610969 C197.968112,292.490051 199.087372,292.116964 196.848852,290.626276 C194.610332,289.135587 190.877806,288.386097 188.637628,289.505357 C186.399107,290.626276 186.772194,288.01301 184.90676,292.490051 C183.041327,296.967092 181.174235,301.822194 178.934056,302.568367 C176.693878,303.314541 172.216837,305.554719 172.216837,305.554719 C172.216837,305.554719 166.618878,305.181633 164.751786,304.808546 C162.884694,304.435459 155.048214,300.329847 153.555867,297.71824 C152.06352,295.104974 151.317347,289.505357 151.317347,286.895408 C151.317347,284.282143 155.421301,276.445663 155.048214,274.578571 C154.675128,272.71148 159.155485,265.248087 158.78074,264.127168 C158.405995,263.00625 159.526913,259.275383 160.646173,257.783036 C161.765434,256.290689 167.365051,254.423597 168.857398,252.93125 C170.349745,251.438903 172.96301,249.573469 175.574617,248.825638 C178.186224,248.077806 180.428061,247.333291 182.293495,247.333291 C184.158929,247.333291 189.010714,243.227679 189.756888,247.333291 C190.503061,251.438903 193.864158,249.944898 195.729592,250.317985 C197.595026,250.691071 197.96977,252.558163 200.954464,247.706378 C203.939158,242.854592 206.92551,241.360587 206.92551,242.479847 C206.92551,243.600765 211.777296,242.108418 212.523469,243.227679 C213.269643,244.346939 214.763648,242.479847 217.375255,244.720026 C219.986862,246.960204 223.719388,247.333291 223.346301,248.450893 C222.973214,249.570153 224.838648,249.570153 224.838648,250.691071 C224.838648,251.81199 226.332653,248.077806 226.332653,254.795026 C226.332653,261.512245 228.198087,265.619515 228.198087,265.619515 C228.198087,265.619515 230.809694,271.219133 231.928954,270.098214 C233.048214,268.977296 235.286735,265.99426 235.286735,265.99426 C235.286735,265.99426 239.01926,263.754082 236.407653,255.915944 C233.794388,248.079464 235.66148,245.839286 234.915306,243.22602 C234.169133,240.612755 234.167474,239.11875 238.646173,235.760969 C243.124872,232.403189 253.947704,224.938138 256.560969,223.445791 C259.174235,221.953444 265.143622,217.847832 265.143622,217.847832 C265.143622,217.847832 267.382143,216.728571 267.756888,213.742219 C268.131633,210.755867 275.220281,205.530995 275.595026,204.038648 C275.96977,202.546301 280.821556,198.815434 280.821556,198.815434 C280.821556,198.815434 286.04477,195.827423 285.671684,193.963648 C285.298597,192.098214 292.390561,188.740434 293.509821,188.740434 C294.629082,188.740434 300.601786,190.604209 300.601786,187.24477 C300.601786,183.88699 300.601786,183.139158 304.334311,180.154464 C308.066837,177.16977 312.916964,172.689413 314.784056,172.689413 C316.651148,172.689413 322.995281,169.333291 325.606888,168.585459 C328.218495,167.837628 336.431378,164.105102 328.966327,168.585459 C321.501276,173.065816 326.353061,170.450893 324.860714,174.183418 C323.368367,177.915944 322.247449,182.76773 329.339413,177.168112 C336.431378,171.568495 336.056633,170.449235 338.669898,170.077806 C341.283163,169.704719 339.416071,171.197066 345.014031,169.329974 C350.61199,167.462883 350.986735,166.718367 350.986735,166.718367 C350.986735,166.718367 353.6,164.478189 352.105995,163.360587 C350.613648,162.239668 353.6,160.747321 348.000383,162.985842 C342.400765,165.224362 342.77551,165.599107 339.042985,164.478189 C335.310459,163.35727 329.7125,163.730357 333.818112,159.997832 C337.923724,156.265306 343.148597,155.146046 339.789158,153.653699 C336.431378,152.161352 327.847066,154.028444 326.727806,154.399872 C325.606888,154.772959 322.995281,154.026786 320.755102,154.399872 C318.514923,154.772959 319.262755,151.416837 320.755102,150.669005 C322.247449,149.921173 327.100893,147.680995 333.071939,146.188648 C339.042985,144.696301 353.6,144.323214 356.957781,144.323214 C360.315561,144.323214 364.79426,145.071046 367.407526,143.203954 C370.020791,141.336862 375.245663,138.353827 375.991837,136.858163 C376.73801,135.3625 379.724362,133.127296 379.724362,133.127296 C379.724362,133.127296 383.082143,129.767857 381.216709,128.27551 C379.351276,126.783163 377.484184,123.423724 375.991837,124.169898 C374.49949,124.916071 375.620408,129.396429 372.634056,124.542985 C369.647704,119.692857 370.020791,118.945026 368.528444,117.825765 C367.036097,116.706505 365.542092,117.45102 366.66301,112.227806 C367.783929,107.004592 367.409184,104.762755 367.409184,104.762755 C367.409184,104.762755 368.528444,100.285714 367.409184,99.9126276 C366.288265,99.5378827 365.54375,98.4202806 363.678316,99.5378827 C361.811224,100.657143 351.36148,105.883673 349.122959,107.002934 C346.882781,108.122194 343.896429,102.524235 345.015689,99.9126276 C346.136607,97.2977041 345.388776,98.7917092 343.896429,95.0608418 C342.404082,91.3299745 336.433036,90.5804847 334.192857,90.5804847 C331.952679,90.5804847 326.729464,87.2210459 325.235459,89.4612245 C323.741454,91.7014031 315.906633,98.790051 314.410969,99.5378827 C312.915306,100.285714 310.680102,93.19375 309.560842,104.762755 C308.439923,116.335077 313.666454,119.692857 307.695408,120.439031 C301.724362,121.185204 296.497832,124.542985 296.497832,124.542985 C296.497832,124.542985 291.647704,124.91773 291.647704,127.902423 C291.647704,130.887117 289.78227,137.979082 287.540434,138.725255 C285.298597,139.471429 279.702296,138.353827 277.836862,136.113648 C275.971429,133.873469 278.209949,125.663903 278.209949,125.663903 L281.569388,122.304464 C281.569388,122.304464 257.683546,118.573597 258.054974,117.079592 C258.429719,115.587245 250.964668,112.975638 250.218495,110.735459 C249.472321,108.495281 249.097577,103.643495 249.845408,101.778061 C250.59324,99.9126276 260.66824,90.9552296 265.893112,89.0897959 C271.117985,87.2243622 280.075383,83.11875 282.688648,82.3709184 C285.301913,81.6230867 289.778954,81.9978316 291.272959,80.132398 C292.766964,78.2669643 293.138393,74.9075255 293.138393,74.9075255 C293.138393,74.9075255 292.392219,69.6809949 293.884566,70.4271684 C295.376913,71.1733418 297.990179,72.2942602 298.363265,73.4135204 C298.736352,74.5327806 298.73801,77.1460459 301.349617,74.1580357 C303.961224,71.1700255 307.322321,70.0524235 310.307015,68.5617347 C313.291709,67.0710459 317.770408,67.4424745 320.385332,65.9501276 C323.000255,64.4577806 327.475638,62.9637755 327.848724,59.23125 C328.221811,55.4987245 326.729464,56.6196429 324.862372,56.244898 C322.996939,55.8734694 325.608546,56.6196429 319.264413,59.6043367 C312.920281,62.5890306 314.785714,60.3505102 310.307015,62.5890306 C305.828316,64.827551 305.453571,65.2022959 305.082143,63.3368622 C304.707398,61.4697704 305.828316,58.4850765 305.828316,58.4850765 C305.828316,58.4850765 306.203061,58.1103316 303.589796,57.3658163 C300.976531,56.621301 300.976531,57.7389031 300.603444,54.3811224 C300.230357,51.0216837 302.468878,46.169898 298.73801,47.6622449 C295.007143,49.1545918 291.647704,46.5429847 289.034439,54.0063776 C286.421173,61.4697704 277.463776,69.3095663 275.223597,67.4424745 C272.983418,65.5753827 272.61199,65.2022959 270.744898,65.2022959 C268.877806,65.2022959 266.266199,62.9637755 262.90676,62.5906888 C259.547321,62.217602 249.469005,62.217602 246.859056,62.5906888 C244.245791,62.9654337 241.261097,61.0983418 239.01926,63.3385204 C236.777423,65.578699 233.422959,68.5633929 233.422959,69.6843112 C233.422959,70.8052296 230.06352,65.5770408 228.94426,65.9517857 C227.825,66.3265306 224.83699,64.4594388 221.480867,64.4594388 C218.121429,64.4594388 215.88125,62.5923469 214.763648,62.5923469 C213.644388,62.5923469 215.88125,59.6059949 214.763648,59.2329082 C213.644388,58.8614796 189.382143,58.113648 189.382143,58.113648 C189.382143,58.113648 181.545663,55.1289541 178.560969,55.5020408 C175.576276,55.8751276 167.365051,56.2465561 161.017602,57.3674745 C154.670153,58.4883929 145.341327,62.2192602 142.356633,62.5923469 C139.370281,62.9670918 132.653061,62.9670918 131.533801,61.1 C130.412883,59.2345663 131.906888,59.6076531 130.412883,59.2345663 C128.918878,58.8614796 130.041454,58.1153061 126.682015,55.503699 C123.322577,52.8920918 128.17602,50.6519133 121.457143,50.6519133 C114.738265,50.6519133 110.634311,50.2771684 104.663265,50.6519133 C98.6922194,51.0266582 86.3753827,54.0096939 84.8830357,53.6366071 C83.3906888,53.2635204 71.4469388,55.503699 69.5798469,54.3844388 C67.7144133,53.2635204 58.3822704,58.4883929 56.5184949,58.1153061 C54.6530612,57.7422194 47.5610969,58.490051 45.6956633,59.6093112 C43.8302296,60.7285714 34.8711735,62.9670918 37.8575255,64.8341837 C40.8438776,66.7012755 40.4691327,68.565051 40.8422194,69.6859694 C41.2153061,70.8068878 37.8575255,73.4168367 37.8575255,73.4168367 C37.8575255,73.4168367 37.1096939,73.4168367 33.0057398,71.9244898 C28.9017857,70.4321429 24.4214286,69.6859694 22.5543367,70.8052296 C20.6872449,71.9244898 17.3294643,74.1663265 18.0756378,75.6586735 C18.8218112,77.1510204 24.0466837,80.5104592 24.7945153,79.3895408 C25.5423469,78.2686224 27.4077806,76.0317602 29.646301,76.4048469 C31.8864796,76.7795918 35.2459184,74.9125 32.2595663,78.6450255 C29.2732143,82.377551 26.659949,84.2429847 24.7945153,84.6177296 C22.9290816,84.9891582 18.4503827,85.3622449 14.3447704,85.7369898 C10.2391582,86.1117347 10.6105867,84.2446429 6.87971939,87.9771684 C3.14885204,91.7096939 1.65484694,89.4695153 0.908673469,93.5751276 C0.1625,97.6807398 -0.583673469,97.6790816 0.908673469,98.8 C2.40102041,99.9209184 -2.07767857,100.292347 1.2817602,101.411607 C4.63954082,102.532526 8.74515306,103.651786 8.37206633,104.769388 C7.99732143,105.890306 12.1045918,103.278699 9.86441327,106.261735 C7.62423469,109.24477 6.13354592,111.859694 10.6105867,108.875 C15.0876276,105.890306 17.7008929,108.127168 21.4334184,106.261735 C25.1659439,104.396301 28.8984694,104.023214 31.1369898,102.530867 C33.3755102,101.03852 34.4964286,98.8 37.8558673,97.6774235 C41.2153061,96.5548469 38.9751276,98.0521684 39.3482143,99.917602 C39.721301,101.783036 39.3482143,102.156122 41.5883929,100.662117 C43.8285714,99.1681122 43.8269133,100.290689 46.8132653,98.4235969 C49.7996173,96.5565051 53.157398,94.6910714 55.3975765,95.8103316 C57.6360969,96.93125 58.3822704,96.93125 59.8762755,96.93125 C61.3702806,96.93125 58.0108418,96.5565051 61.3686224,96.93125 C64.7280612,97.3026786 59.8762755,95.8103316 71.0721939,98.4235969 C82.2681122,101.036862 85.2561224,99.1697704 86.0006378,103.275383 C86.7451531,107.380995 88.2408163,102.900638 90.10625,105.513903 C91.9716837,108.127168 93.092602,105.888648 94.2118622,110.365689 C95.3311224,114.84273 94.2118622,127.161224 93.4656888,128.653571 C92.7195153,130.145918 92.3464286,130.145918 92.7195153,133.505357 C93.092602,136.863138 97.571301,152.914158 96.0789541,154.03176 C94.5866071,155.149362 91.2271684,155.524107 91.2271684,155.524107 L89.3617347,162.241327 C89.3617347,162.241327 86.3770408,167.839286 83.7637755,170.825638 C81.1505102,173.81199 77.7927296,177.544515 75.9256378,180.154464 C74.0602041,182.76773 72.566199,187.248087 69.9545918,189.859694 C67.3429847,192.471301 65.1028061,191.352041 65.8489796,196.95 C66.5951531,202.547959 65.8489796,208.519005 66.5951531,212.626276 C67.3413265,216.733546 69.2084184,222.329847 70.7007653,224.570026 C72.1931122,226.810204 73.3140306,226.808546 75.9256378,228.67398 C78.5389031,230.539413 81.8983418,232.78125 81.5235969,234.646684 C81.148852,236.512117 81.8966837,248.084439 81.8966837,248.084439 C81.8966837,248.084439 84.1368622,251.815306 84.5082908,255.920918 C84.8830357,260.028189 87.4946429,264.132143 87.4946429,264.132143 L89.7348214,268.985587 C89.7348214,268.985587 90.8540816,269.360332 92.3480867,272.343367 C93.8420918,275.326403 93.8404337,275.329719 94.2135204,276.820408 C94.5882653,278.316071 94.5882653,277.941327 94.5882653,278.316071 C94.5882653,278.6875 94.2135204,271.970281 93.4673469,270.103189 C92.7211735,268.236097 92.7211735,265.999235 91.975,263.759056 C91.2288265,261.518878 92.3480867,258.905612 90.1095663,255.547832 C87.8710459,252.190051 87.8710459,251.815306 86.7517857,248.455867 C85.6325255,245.098087 84.1385204,241.365561 85.6325255,240.61773 C87.1265306,239.869898 88.2441327,235.021429 91.2304847,240.61773 C94.2168367,246.214031 94.5899235,244.725 94.9630102,249.203699 C95.3344388,253.682398 96.4553571,255.176403 97.5746173,257.040179 C98.6938776,258.905612 101.305485,265.253061 102.79949,267.86301 C104.291837,270.476276 102.79949,266.370663 106.15727,271.595536 C109.516709,276.820408 109.891454,277.939668 111.756888,282.045281 C113.622321,286.150893 114.74324,286.150893 115.8625,289.135587 C116.98176,292.120281 116.235587,291.375765 115.487755,294.733546 C114.739923,298.091327 116.233929,301.82551 116.233929,301.82551 C116.233929,301.82551 121.458801,303.690944 121.831888,304.810204 C122.204974,305.929464 127.429847,307.794898 128.177679,309.288903 C128.92551,310.782908 133.775638,312.646684 133.775638,312.646684 C133.775638,312.646684 137.88125,315.259949 139.371939,316.006122 C140.862628,316.752296 145.346301,317.500128 145.346301,317.500128 C145.346301,317.500128 148.330995,318.247959 149.450255,318.619388 C150.569515,318.992474 153.928954,318.992474 153.928954,318.992474 C153.928954,318.992474 156.915306,316.753954 158.034566,317.500128 C159.153827,318.246301 161.767092,316.006122 162.886352,317.871556 C164.005612,319.73699 166.245791,319.738648 167.365051,321.232653 C168.484311,322.726658 169.603571,322.725 171.470663,324.590434 C173.337755,326.455867 175.203189,326.082781 177.068622,327.575128 C178.934056,329.067474 180.426403,329.067474 182.666582,329.067474 C184.90676,329.067474 184.905102,329.067474 186.399107,329.442219 C187.893112,329.816964 188.637628,328.321301 190.129974,330.190051 C191.622321,332.058801 192.741582,333.174745 193.860842,335.040179 C194.980102,336.905612 197.593367,336.905612 197.966454,339.891964 C198.339541,342.878316 199.085714,342.506888 199.085714,345.116837 C199.085714,347.730102 200.578061,348.849362 201.69898,349.597194 C202.816582,350.341709 206.922194,354.072577 206.922194,354.072577 L212.520153,355.193495 L216.998852,358.552934 L221.855612,360.040306 L221.855612,360.040306 Z" id="Shape" style="mix-blend-mode: lighten;"></path>
            <path d="M341.473852,13.315051 L363.867347,10.5160714 C363.867347,10.5160714 371.703827,10.5160714 375.623724,7.71709184 C379.543622,4.91811224 375.623724,4.91811224 387.380102,2.67959184 C399.13648,0.441071429 395.778699,-0.679846939 401.937117,0.439413265 C408.093878,1.56033163 409.773597,1.56033163 416.492474,2.67959184 C423.209694,3.79885204 424.889413,2.12079082 431.046173,3.79885204 C437.202934,5.47691327 440.003571,4.91811224 445.04273,4.91811224 L460.717347,4.91811224 C468.555485,4.91811224 475.833163,0.439413265 478.632143,3.23839286 C481.431122,6.03737245 483.110842,4.91811224 492.628699,6.03737245 C502.146556,7.15663265 506.064796,4.91645408 509.983036,6.03737245 C513.901276,7.15829082 520.621811,5.47857143 528.458291,6.03737245 C536.29477,6.59617347 540.214668,5.47857143 543.013648,5.47857143 C545.812628,5.47857143 548.609949,1.55867347 552.529847,4.91811224 C556.449745,8.27755102 561.487245,3.79885204 562.046046,8.27755102 C562.604847,12.75625 569.884184,9.39681122 562.606505,12.75625 C555.328827,16.1156888 556.448087,15.5552296 551.408929,20.0339286 C546.36977,24.5126276 554.768367,28.4308673 544.13125,32.3507653 C533.494133,36.2706633 531.814413,30.1105867 529.015434,36.8294643 C526.216454,43.5483418 529.015434,45.2264031 528.456633,48.5858418 C527.896173,51.9436224 526.776913,52.5040816 523.417474,55.3030612 C520.059694,58.1020408 520.059694,55.3030612 512.221556,56.9827806 C504.383418,58.6625 498.785459,60.3422194 495.427679,60.3422194 C492.069898,60.3422194 484.790561,63.141199 482.550383,64.2604592 C480.310204,65.3797194 486.470281,67.0594388 474.712245,70.4188776 C462.954209,73.7783163 460.15523,73.2195153 456.797449,77.6965561 C453.439668,82.1735969 454.55727,82.7373724 452.31875,85.536352 C450.08023,88.3353316 443.361352,99.5329082 440.001913,96.7339286 C436.644133,93.934949 434.962755,94.49375 432.163776,91.6947704 C429.364796,88.8957908 427.685077,84.977551 426.005357,82.7373724 C424.325638,80.4971939 423.765179,74.8992347 423.206378,71.5397959 C422.647577,68.1803571 417.60676,60.3438776 423.206378,61.4631378 C428.804337,62.582398 432.163776,62.0235969 433.843495,60.9043367 C435.523214,59.7850765 437.202934,55.8651786 437.202934,55.8651786 C437.202934,55.8651786 436.644133,49.7067602 434.962755,46.3473214 C433.281378,42.9878827 434.403954,40.1889031 431.604974,36.8311224 C428.805995,33.4716837 428.805995,34.0321429 424.886097,30.6727041 C420.966199,27.3132653 422.087117,25.6335459 415.928699,25.0747449 C409.770281,24.5159439 408.090561,22.8345663 405.850383,23.3950255 C403.610204,23.9554847 396.334184,19.4751276 404.170663,18.9163265 C412.007143,18.3575255 419.28648,19.4751276 419.28648,19.4751276 C419.28648,19.4751276 429.363138,14.9964286 426.005357,14.4376276 C422.647577,13.8771684 431.042857,8.8380102 423.206378,10.5177296 C415.369898,12.197449 406.4125,14.4376276 404.172321,14.9964286 C401.932143,15.5552296 396.334184,16.1156888 390.736224,17.7954082 C385.138265,19.4751276 378.419388,18.9163265 375.061607,22.8345663 C371.702168,26.7528061 375.061607,27.3132653 371.702168,26.7528061 C368.344388,26.1940051 374.501148,22.8345663 366.664668,26.7528061 C358.828189,30.6710459 361.066709,30.1122449 357.148469,28.9929847 C353.228571,27.8737245 350.429592,26.1940051 350.429592,26.1940051 C350.429592,26.1940051 355.470408,25.6335459 348.191071,25.0747449 C340.911735,24.5159439 340.913393,24.5159439 338.114413,21.1548469 C335.315434,17.79375 336.995153,17.7954082 338.673214,16.676148 C340.351276,15.5568878 341.473852,13.315051 341.473852,13.315051 L341.473852,13.315051 Z" id="Shape" style="mix-blend-mode: lighten;"></path>
            <path d="M329.157015,38.5075255 C326.358036,41.3065051 319.639158,45.2264031 321.320536,46.9061224 C323.001913,48.5858418 324.119515,54.7442602 327.478954,53.0645408 C330.836735,51.3848214 326.918495,45.7868622 339.794133,50.2655612 C352.671429,54.7442602 351.55051,49.7067602 354.34949,56.4239796 C357.148469,63.141199 359.38699,68.178699 357.70727,69.8600765 C356.027551,71.5414541 355.46875,73.2195153 349.869133,74.8992347 C344.269515,76.5789541 342.030995,78.8191327 345.950893,81.6164541 C349.870791,84.4137755 357.148469,87.2144133 360.50625,88.8957908 C363.864031,90.5771684 373.942347,91.1359694 368.903189,85.5380102 C363.864031,79.940051 370.022449,78.2586735 370.022449,78.2586735 C370.022449,78.2586735 379.540306,85.5380102 376.182526,77.1394133 C372.824745,68.7408163 370.582908,68.7424745 372.823087,68.7424745 C375.063265,68.7424745 379.540306,71.5414541 379.540306,71.5414541 L381.780485,67.0627551 L379.540306,59.7850765 L372.262628,52.507398 C372.262628,52.507398 378.419388,46.9094388 370.022449,45.7901786 C361.62551,44.6709184 362.184311,44.6709184 357.705612,41.8702806 C353.226913,39.0696429 352.668112,37.9520408 344.269515,39.6317602 C335.870918,41.3114796 333.073597,42.4307398 333.073597,42.4307398 L329.157015,38.5075255 L329.157015,38.5075255 Z" id="Shape" style="mix-blend-mode: lighten;"></path>
            <path d="M204.315561,45.2264031 C207.675,41.8669643 216.632398,34.0304847 219.991837,36.2690051 C223.349617,38.5075255 228.387117,34.5892857 232.307015,37.9487245 C236.226913,41.3081633 240.703954,45.2264031 244.063393,46.3456633 C247.422832,47.4649235 251.341071,43.5466837 254.70051,45.2264031 C258.058291,46.9061224 269.814668,36.8294643 267.576148,44.667602 C265.337628,52.5057398 270.375128,54.7442602 264.216709,55.3047194 C258.058291,55.8651786 251.341071,60.3438776 248.540434,58.6641582 C245.739796,56.9844388 243.501276,55.3047194 239.022577,57.544898 C234.543878,59.7850765 236.784056,59.7834184 231.744898,58.6641582 C226.70574,57.544898 225.588138,59.7834184 224.468878,58.103699 C223.347959,56.4256378 219.990179,56.9844388 220.54898,51.9452806 C221.107781,46.9061224 222.7875,47.4665816 219.428061,47.4665816 C216.070281,47.4665816 213.271301,48.0270408 211.031122,46.3473214 C208.790944,44.667602 204.315561,45.2264031 204.315561,45.2264031 L204.315561,45.2264031 Z" id="Shape" style="mix-blend-mode: lighten;"></path>
        </g>
    </g>
</svg>
